<svg xmlns="http://www.w3.org/2000/svg" width="126.116" height="126.116" viewBox="0 0 126.116 126.116">
  <g id="Group_180" data-name="Group 180" transform="translate(-1562.942 -759.942)">
    <g id="Chart_2_widget" data-name="Chart 2 widget" transform="translate(1562.942 759.942)">
      <g id="Group_59" data-name="Group 59" transform="translate(-1243.551 -628.272) rotate(3)">
        <g id="Ellipse_21" data-name="Ellipse 21" transform="translate(1281 562)" fill="#fff" stroke="#f5fbff" stroke-linecap="round" stroke-width="14">
          <circle cx="60" cy="60" r="60" stroke="none"/>
          <circle cx="60" cy="60" r="53" fill="none"/>
        </g>
        <g id="Path_408" data-name="Path 408" transform="translate(1281 562)" fill="none" stroke-linecap="round" stroke-dasharray="230">
          <path d="M60,0A60,60,0,1,1,0,60,60,60,0,0,1,60,0Z" stroke="none"/>
          <path d="M 60 0 C 93.1370849609375 0 120 26.8629150390625 120 60 C 120 93.1370849609375 93.1370849609375 120 60 120 C 60 120 60 120 60 120 C 59.9892463684082 120 59.98003768920898 120 59.96928405761719 119.9999923706055 C 59.9605598449707 119.9999847412109 59.95420837402344 119.9999847412109 59.94548416137695 119.9999771118164 C 59.93878173828125 119.9999694824219 59.92879867553711 119.9999542236328 59.92209243774414 119.9999465942383 C 59.91450500488281 119.9999389648438 59.90552139282227 119.9999237060547 59.89792633056641 119.9999160766602 C 59.89034271240234 119.9999008178711 59.88348388671875 119.999885559082 59.87588882446289 119.999870300293 C 59.86716461181641 119.9998550415039 59.86157608032227 119.9998474121094 59.85285568237305 119.9998245239258 C 59.8438835144043 119.9998016357422 59.83903503417969 119.9997863769531 59.83008575439453 119.9997634887695 C 59.81845855712891 119.9997329711914 59.80975723266602 119.9997024536133 59.79812622070313 119.9996643066406 C 59.78851699829102 119.9996337890625 59.78433609008789 119.9996185302734 59.77471923828125 119.9995880126953 C 59.76800918579102 119.9995574951172 59.75857925415039 119.9995269775391 59.75188827514648 119.9994964599609 C 59.74429321289063 119.9994659423828 59.73632049560547 119.9994354248047 59.72874069213867 119.999397277832 C 59.72115325927734 119.9993667602539 59.71342468261719 119.9993286132813 59.70582962036133 119.9992904663086 C 59.69913101196289 119.9992599487305 59.68944931030273 119.9992141723633 59.68275833129883 119.9991760253906 C 59.67378997802734 119.9991302490234 59.66925430297852 119.9991073608398 59.66025161743164 119.9990615844727 C 59.64950942993164 119.9990005493164 59.64042663574219 119.9989471435547 59.62969970703125 119.9988784790039 C 59.62009811401367 119.9988250732422 59.61440658569336 119.9987869262695 59.60480499267578 119.9987258911133 C 59.59810256958008 119.9986801147461 59.5892219543457 119.9986190795898 59.58252334594727 119.9985733032227 C 59.57494735717773 119.9985275268555 59.56684494018555 119.9984664916992 59.55925750732422 119.9984130859375 C 59.55255508422852 119.9983673095703 59.54296112060547 119.9982986450195 59.53627014160156 119.9982452392578 C 59.52755737304688 119.998176574707 59.52173233032227 119.9981307983398 59.51303100585938 119.9980621337891 C 59.50318908691406 119.9979858398438 59.50036239624023 119.9979629516602 59.49050521850586 119.9978790283203 C 59.48065567016602 119.997802734375 59.47187042236328 119.9977264404297 59.46200942993164 119.9976348876953 C 59.45330429077148 119.99755859375 59.44571304321289 119.9974899291992 59.43701171875 119.9974136352539 C 59.43031692504883 119.9973526000977 59.41980361938477 119.9972534179688 59.41311645507813 119.997184753418 C 59.40731048583984 119.9971313476563 59.39593505859375 119.9970245361328 59.39013290405273 119.9969635009766 C 59.38344192504883 119.9968948364258 59.37335968017578 119.9967956542969 59.36667251586914 119.9967269897461 C 59.3599853515625 119.9966583251953 59.35038757324219 119.9965591430664 59.34368896484375 119.9964828491211 C 59.33675003051758 119.9964065551758 59.32772445678711 119.9963150024414 59.32079696655273 119.9962310791016 C 59.31096267700195 119.9961242675781 59.30295944213867 119.9960327148438 59.29312133789063 119.9959182739258 C 59.28441619873047 119.9958190917969 59.27509689331055 119.9957122802734 59.26639938354492 119.99560546875 C 59.25882339477539 119.9955139160156 59.24972534179688 119.9954071044922 59.24216461181641 119.9953079223633 C 59.23459243774414 119.9952163696289 59.22562789916992 119.9951019287109 59.21804046630859 119.9950103759766 C 59.20958709716797 119.9949035644531 59.20428466796875 119.9948348999023 59.19582366943359 119.9947204589844 C 59.18825149536133 119.9946212768555 59.18079376220703 119.9945220947266 59.17322158813477 119.9944229125977 C 59.16452789306641 119.9943008422852 59.15950012207031 119.9942321777344 59.15081024169922 119.9941101074219 C 59.14008712768555 119.9939651489258 59.13226318359375 119.9938507080078 59.12155532836914 119.9936981201172 C 59.11285018920898 119.9935760498047 59.10453033447266 119.9934539794922 59.09583282470703 119.9933242797852 C 59.08826065063477 119.9932098388672 59.08064651489258 119.9930953979492 59.07307815551758 119.9929809570313 C 59.06550979614258 119.9928665161133 59.05710601806641 119.9927444458008 59.04954528808594 119.9926223754883 C 59.04196929931641 119.9925079345703 59.03407669067383 119.9923782348633 59.02651214599609 119.9922637939453 C 59.01895523071289 119.9921417236328 59.01183319091797 119.9920272827148 59.00425720214844 119.9919052124023 C 58.99644470214844 119.9917755126953 58.98966598510742 119.9916687011719 58.98186492919922 119.9915390014648 C 58.96398162841797 119.9912414550781 58.94614410400391 119.9909362792969 58.92827224731445 119.9906158447266 C 58.91957855224609 119.9904708862305 58.91312789916992 119.9903564453125 58.9044303894043 119.9901962280273 C 58.89774703979492 119.9900741577148 58.88724517822266 119.9898910522461 58.88056945800781 119.9897689819336 C 58.87301254272461 119.9896240234375 58.86481857299805 119.9894790649414 58.85725402832031 119.9893341064453 C 58.84969329833984 119.9891967773438 58.84161376953125 119.9890441894531 58.83405303955078 119.988899230957 C 58.82737350463867 119.98876953125 58.81857299804688 119.9886016845703 58.81189727783203 119.9884719848633 C 58.80409240722656 119.9883193969727 58.79679107666016 119.9881744384766 58.78898620605469 119.9880218505859 C 58.77916717529297 119.9878311157227 58.76834487915039 119.9876098632813 58.75852584838867 119.9874114990234 C 58.75098419189453 119.9872589111328 58.74154281616211 119.987060546875 58.73398590087891 119.9869079589844 C 58.72731018066406 119.9867706298828 58.71786117553711 119.986572265625 58.71117782592773 119.9864273071289 C 58.7036247253418 119.9862747192383 58.69572448730469 119.9861068725586 58.68817138671875 119.9859390258789 C 58.68062210083008 119.9857788085938 58.67288970947266 119.9856109619141 58.66533660888672 119.9854507446289 C 58.65866851806641 119.9853057861328 58.64959716796875 119.9850997924805 58.64292144775391 119.9849548339844 C 58.63399124145508 119.9847564697266 58.62906646728516 119.9846496582031 58.62015533447266 119.9844436645508 C 58.61122131347656 119.984245300293 58.60065078735352 119.984001159668 58.59171295166016 119.9837951660156 C 58.58303451538086 119.9835968017578 58.57521820068359 119.9834136962891 58.56652069091797 119.9832077026367 C 58.55984497070313 119.9830551147461 58.54856872558594 119.9827880859375 58.54191207885742 119.9826278686523 C 58.53435516357422 119.9824523925781 58.52669525146484 119.9822616577148 58.51914215087891 119.9820785522461 C 58.5115852355957 119.9818954467773 58.50337219238281 119.9816970825195 58.49583053588867 119.9815139770508 C 58.48916625976563 119.9813461303711 58.48019409179688 119.9811248779297 58.4735221862793 119.98095703125 C 58.46308135986328 119.9806976318359 58.45798492431641 119.9805679321289 58.44754791259766 119.9803085327148 C 58.43798828125 119.9800643920898 58.4289436340332 119.9798278808594 58.41938400268555 119.9795837402344 C 58.41070556640625 119.979362487793 58.40483093261719 119.9792022705078 58.39614868164063 119.9789810180664 C 58.38948059082031 119.9788055419922 58.3796272277832 119.9785461425781 58.37296295166016 119.9783630371094 C 58.36542892456055 119.9781646728516 58.35785293579102 119.9779586791992 58.35030364990234 119.9777603149414 C 58.3436393737793 119.9775772094727 58.33455657958984 119.9773330688477 58.32788848876953 119.9771499633789 C 58.32009887695313 119.976936340332 58.31313705444336 119.9767456054688 58.30534362792969 119.9765243530273 C 58.29730606079102 119.9763031005859 58.29277038574219 119.9761810302734 58.28473281860352 119.9759521484375 C 58.28473281860352 119.9759521484375 58.28218841552734 119.9758834838867 58.28218841552734 119.9758834838867 C 58.27150726318359 119.9755783081055 58.26280975341797 119.9753341674805 58.25213241577148 119.9750289916992 C 58.24346542358398 119.9747772216797 58.23664855957031 119.9745864868164 58.22798156738281 119.9743347167969 C 58.22132110595703 119.9741363525391 58.21063613891602 119.9738311767578 58.20397567749023 119.9736328125 C 58.19644165039063 119.9734115600586 58.18833160400391 119.9731674194336 58.18079376220703 119.9729461669922 C 58.17237091064453 119.9726943969727 58.16604995727539 119.9725036621094 58.15763092041016 119.9722518920898 C 58.15097045898438 119.972053527832 58.14246368408203 119.971794128418 58.13580703735352 119.9715881347656 C 58.12714385986328 119.9713287353516 58.121337890625 119.9711456298828 58.11267471313477 119.9708786010742 C 58.10200500488281 119.9705505371094 58.09341812133789 119.9702835083008 58.08274078369141 119.9699478149414 C 58.07320022583008 119.9696502685547 58.06724166870117 119.9694595336914 58.05770492553711 119.9691543579102 C 58.05017852783203 119.9689178466797 58.04223251342773 119.9686660766602 58.03469085693359 119.9684219360352 C 58.02715682983398 119.9681777954102 58.01932907104492 119.9679260253906 58.01179504394531 119.9676818847656 C 58.00514602661133 119.9674606323242 57.99592971801758 119.9671630859375 57.98927688598633 119.9669418334961 C 57.98174285888672 119.9666900634766 57.97457122802734 119.9664535522461 57.967041015625 119.9662017822266 C 57.95925521850586 119.965950012207 57.95194625854492 119.9656982421875 57.94417572021484 119.9654388427734 C 57.93527603149414 119.9651412963867 57.92754364013672 119.9648742675781 57.91858291625977 119.9645690917969 C 57.90792465209961 119.9642105102539 57.90067291259766 119.9639587402344 57.8900032043457 119.9635925292969 C 57.88247299194336 119.9633331298828 57.87316131591797 119.963005065918 57.86564254760742 119.9627456665039 C 57.85810852050781 119.9624786376953 57.85100936889648 119.9622344970703 57.84347534179688 119.9619674682617 C 57.83594512939453 119.9617004394531 57.82802963256836 119.9614181518555 57.82049942016602 119.9611511230469 C 57.81297302246094 119.9608840942383 57.80599594116211 119.9606323242188 57.79846954345703 119.9603576660156 C 57.78981399536133 119.9600448608398 57.78385925292969 119.959831237793 57.77520370483398 119.9595184326172 C 57.76630783081055 119.9591903686523 57.76156997680664 119.9590148925781 57.75264358520508 119.9586868286133 C 57.74110794067383 119.9582672119141 57.73249053955078 119.9579467773438 57.7209587097168 119.9575119018555 C 57.71142578125 119.957160949707 57.70695495605469 119.9569931030273 57.69742584228516 119.9566268920898 C 57.68901824951172 119.9563140869141 57.68222045898438 119.9560546875 57.67383193969727 119.9557342529297 C 57.66630172729492 119.955451965332 57.65913772583008 119.9551773071289 57.65161514282227 119.9548873901367 C 57.64409255981445 119.9545974731445 57.63697052001953 119.9543228149414 57.62945556640625 119.9540252685547 C 57.62280654907227 119.9537658691406 57.61319351196289 119.9533920288086 57.60654067993164 119.9531326293945 C 57.59701538085938 119.9527587890625 57.59062194824219 119.952507019043 57.58108139038086 119.9521255493164 C 57.57244110107422 119.951789855957 57.56215667724609 119.9513778686523 57.55351257324219 119.9510269165039 C 57.54397964477539 119.9506454467773 57.53903961181641 119.9504470825195 57.5295295715332 119.950065612793 C 57.52289199829102 119.9497909545898 57.51267242431641 119.9493789672852 57.50603103637695 119.949104309082 C 57.49850463867188 119.9487991333008 57.49045181274414 119.9484710693359 57.48293304443359 119.9481582641602 C 57.47629165649414 119.947883605957 57.46807861328125 119.9475402832031 57.46145248413086 119.947265625 C 57.45280838012695 119.946907043457 57.44720077514648 119.9466705322266 57.43857192993164 119.9463119506836 C 57.4296875 119.9459381103516 57.42487335205078 119.9457321166992 57.41597366333008 119.9453582763672 C 57.40621185302734 119.9449462890625 57.39752578735352 119.9445724487305 57.38777542114258 119.9441528320313 C 57.37913513183594 119.9437866210938 57.37120056152344 119.9434432983398 57.36255645751953 119.9430694580078 C 57.35592651367188 119.9427871704102 57.34517288208008 119.9423141479492 57.33853530883789 119.942024230957 C 57.33102798461914 119.9416961669922 57.32303619384766 119.9413528442383 57.31552886962891 119.9410171508789 C 57.30889511108398 119.9407272338867 57.29996871948242 119.9403305053711 57.2933349609375 119.9400405883789 C 57.28557205200195 119.9396896362305 57.27863693237305 119.9393844604492 57.2708854675293 119.9390335083008 C 57.26288604736328 119.9386825561523 57.2562255859375 119.9383773803711 57.24822616577148 119.9380187988281 C 57.24822616577148 119.9380187988281 57.24820327758789 119.9380187988281 57.24820327758789 119.9380187988281 C 57.23044967651367 119.9372177124023 57.21380615234375 119.9364547729492 57.19607162475586 119.9356384277344 C 57.18831634521484 119.9352874755859 57.17988967895508 119.9348983764648 57.17213439941406 119.9345321655273 C 57.1663818359375 119.9342651367188 57.15426254272461 119.9337005615234 57.14850997924805 119.9334335327148 C 57.14188003540039 119.9331207275391 57.13207244873047 119.9326629638672 57.12543869018555 119.9323501586914 C 57.11681365966797 119.9319458007813 57.11043930053711 119.931640625 57.10179901123047 119.9312286376953 C 57.09492492675781 119.930908203125 57.08655166625977 119.9305038452148 57.07968139648438 119.93017578125 C 57.07080841064453 119.9297485351563 57.06263732910156 119.9293594360352 57.05378723144531 119.9289321899414 C 57.04316711425781 119.9284133911133 57.03744506835938 119.9281387329102 57.02682495117188 119.927619934082 C 57.01932525634766 119.9272537231445 57.00947189331055 119.9267730712891 57.0019645690918 119.926399230957 C 56.99446105957031 119.9260330200195 56.98688125610352 119.9256591796875 56.97937774658203 119.9252853393555 C 56.97275161743164 119.9249572753906 56.96342468261719 119.9244918823242 56.95679473876953 119.9241638183594 C 56.95016860961914 119.923828125 56.94032669067383 119.92333984375 56.93369674682617 119.9230041503906 C 56.92419815063477 119.9225234985352 56.92024230957031 119.9223251342773 56.91075134277344 119.9218444824219 C 56.90188598632813 119.9213943481445 56.89520645141602 119.9210510253906 56.8863639831543 119.9206008911133 C 56.87662506103516 119.9201049804688 56.86837005615234 119.919677734375 56.8586311340332 119.9191741943359 C 56.8491325378418 119.9186859130859 56.84438323974609 119.9184417724609 56.83488845825195 119.9179458618164 C 56.82826995849609 119.9176025390625 56.81806182861328 119.9170684814453 56.81143569946289 119.9167251586914 C 56.80481719970703 119.916374206543 56.79589462280273 119.9159088134766 56.78927612304688 119.9155578613281 C 56.78265762329102 119.9152145385742 56.77256011962891 119.914680480957 56.76594543457031 119.9143295288086 C 56.75820159912109 119.9139175415039 56.75112915039063 119.9135360717773 56.74340057373047 119.9131240844727 C 56.73565673828125 119.912712097168 56.72531127929688 119.9121551513672 56.71757888793945 119.911735534668 C 56.70984268188477 119.9113235473633 56.69819259643555 119.9106903076172 56.69046783447266 119.910270690918 C 56.68185806274414 119.909797668457 56.67583084106445 119.9094696044922 56.6672248840332 119.9090042114258 C 56.66060256958008 119.9086380004883 56.65117645263672 119.9081192016602 56.64456558227539 119.9077529907227 C 56.6379508972168 119.9073944091797 56.62860488891602 119.9068756103516 56.62198638916016 119.9065093994141 C 56.61425018310547 119.9060821533203 56.60702514648438 119.9056777954102 56.59929656982422 119.9052429199219 C 56.59043884277344 119.9047470092773 56.585205078125 119.9044570922852 56.57631683349609 119.9039535522461 C 56.56834030151367 119.9035110473633 56.56159973144531 119.9031295776367 56.55362319946289 119.9026794433594 C 56.55362319946289 119.9026794433594 56.55310440063477 119.9026489257813 56.55310440063477 119.9026489257813 C 56.54337692260742 119.9020919799805 56.53370666503906 119.9015426635742 56.52397918701172 119.9009857177734 C 56.51537322998047 119.9004974365234 56.50884246826172 119.9001235961914 56.5002326965332 119.8996276855469 C 56.49362182617188 119.8992462158203 56.48316192626953 119.8986434936523 56.47654724121094 119.8982620239258 C 56.46993637084961 119.8978805541992 56.46042633056641 119.8973236083984 56.45382690429688 119.8969421386719 C 56.44721221923828 119.8965530395508 56.43718338012695 119.8959655761719 56.43058013916016 119.8955841064453 C 56.42284774780273 119.8951263427734 56.41611099243164 119.8947296142578 56.40837860107422 119.8942718505859 C 56.40040588378906 119.8938064575195 56.39369583129883 119.8934097290039 56.38572311401367 119.892936706543 C 56.38572311401367 119.892936706543 56.38570404052734 119.8929290771484 56.38570404052734 119.8929290771484 C 56.37685394287109 119.8924102783203 56.36813354492188 119.8918838500977 56.35930633544922 119.891357421875 C 56.34870910644531 119.8907241821289 56.34249114990234 119.8903503417969 56.33190536499023 119.8897094726563 C 56.32529449462891 119.8893127441406 56.31534194946289 119.8887100219727 56.30875015258789 119.888313293457 C 56.30213928222656 119.8879089355469 56.29298400878906 119.8873519897461 56.28638076782227 119.8869476318359 C 56.2806510925293 119.8865966796875 56.26906585693359 119.8858871459961 56.26332092285156 119.8855361938477 C 56.25473022460938 119.885009765625 56.24884414672852 119.8846435546875 56.2402458190918 119.8841171264648 C 56.23252105712891 119.8836364746094 56.22559356689453 119.8832092285156 56.21786880493164 119.8827285766602 C 56.20903015136719 119.8821792602539 56.20177459716797 119.8817291259766 56.19296264648438 119.8811721801758 C 56.18238067626953 119.8805084228516 56.17557144165039 119.8800811767578 56.16497802734375 119.8794097900391 C 56.15749740600586 119.8789443969727 56.14829254150391 119.8783569335938 56.14082336425781 119.8778839111328 C 56.13422012329102 119.8774642944336 56.12568664550781 119.8769226074219 56.11908721923828 119.8765029907227 C 56.11248779296875 119.8760833740234 56.10242080688477 119.8754348754883 56.09581756591797 119.8750076293945 C 56.0892219543457 119.8745880126953 56.07996368408203 119.8739929199219 56.07336807250977 119.8735656738281 C 56.06478118896484 119.8730087280273 56.0588493347168 119.8726272583008 56.05024337768555 119.8720703125 C 56.03432464599609 119.8710327148438 56.02076721191406 119.8701477050781 56.00485229492188 119.8691024780273 C 55.99716186523438 119.8685913085938 55.98941040039063 119.8680801391602 55.98169708251953 119.8675765991211 C 55.97596740722656 119.8671951293945 55.96477508544922 119.866455078125 55.95905303955078 119.8660736083984 C 55.95246124267578 119.8656311035156 55.94203948974609 119.8649368286133 55.93544006347656 119.8644943237305 C 55.92684936523438 119.8639221191406 55.92147064208984 119.8635635375977 55.91288757324219 119.8629837036133 C 55.90428161621094 119.8624038696289 55.89703369140625 119.8619155883789 55.88845825195313 119.8613357543945 C 55.88671875 119.8612213134766 55.88488006591797 119.8610916137695 55.88313293457031 119.8609771728516 C 55.86722564697266 119.8599014282227 55.85343170166016 119.8589553833008 55.8375244140625 119.8578643798828 C 55.82981872558594 119.8573379516602 55.82252502441406 119.8568420410156 55.8148193359375 119.8563079833984 C 55.80909729003906 119.8559112548828 55.79764556884766 119.8551177978516 55.79192352294922 119.8547286987305 C 55.78531646728516 119.8542709350586 55.77581787109375 119.8536071777344 55.76923370361328 119.8531494140625 C 55.76264953613281 119.8526916503906 55.75238037109375 119.8519744873047 55.74578094482422 119.8515090942383 C 55.73720550537109 119.8509063720703 55.72947692871094 119.8503646850586 55.72090911865234 119.8497619628906 C 55.71916198730469 119.8496398925781 55.71796417236328 119.8495559692383 55.71622467041016 119.8494338989258 C 55.70032501220703 119.8483123779297 55.68636322021484 119.8473205566406 55.67047119140625 119.84619140625 C 55.66278076171875 119.8456344604492 55.65511322021484 119.8450927734375 55.64741516113281 119.8445358276367 C 55.64167022705078 119.8441314697266 55.63095092773438 119.8433532714844 55.62522888183594 119.8429412841797 C 55.61861419677734 119.8424682617188 55.6077880859375 119.8416900634766 55.60122680664063 119.8412094116211 C 55.59263610839844 119.8405914306641 55.58796691894531 119.8402481079102 55.57939910888672 119.8396224975586 C 55.57084655761719 119.838996887207 55.56334686279297 119.8384552001953 55.55477905273438 119.8378295898438 C 55.55303955078125 119.8376998901367 55.55084991455078 119.8375396728516 55.54910278320313 119.8374099731445 C 55.53321838378906 119.8362503051758 55.51937103271484 119.8352279663086 55.50349426269531 119.8340530395508 C 55.49580383300781 119.8334808349609 55.48879241943359 119.8329620361328 55.48110198974609 119.832389831543 C 55.4725341796875 119.8317489624023 55.46648406982422 119.831298828125 55.45791625976563 119.8306579589844 C 55.45131683349609 119.8301620483398 55.44149017333984 119.8294219970703 55.43492126464844 119.8289260864258 C 55.4283447265625 119.8284378051758 55.41817474365234 119.8276672363281 55.41159057617188 119.8271713256836 C 55.40386199951172 119.8265838623047 55.39699554443359 119.8260650634766 55.38930511474609 119.8254776000977 C 55.38668823242188 119.8252792358398 55.38433837890625 119.8251037597656 55.38172149658203 119.8249053955078 C 55.36585235595703 119.8236999511719 55.35270690917969 119.8226928710938 55.33684539794922 119.8214721679688 C 55.32913970947266 119.8208770751953 55.32138061523438 119.8202819824219 55.31369018554688 119.8196868896484 C 55.30513763427734 119.8190231323242 55.29966735839844 119.818603515625 55.29111480712891 119.8179397583008 C 55.28343963623047 119.8173446655273 55.27512359619141 119.8166961669922 55.26744079589844 119.8160934448242 C 55.26174163818359 119.8156509399414 55.25018310546875 119.8147430419922 55.24448394775391 119.8143005371094 C 55.23480987548828 119.8135375976563 55.22933959960938 119.8131103515625 55.21967315673828 119.8123474121094 C 55.21793365478516 119.8122100830078 55.21781158447266 119.8122024536133 55.21607208251953 119.8120651245117 C 55.19228363037109 119.810188293457 55.17046356201172 119.8084564208984 55.14668273925781 119.8065490722656 C 55.13899993896484 119.8059387207031 55.13118743896484 119.8053131103516 55.12350463867188 119.8046951293945 C 55.11383819580078 119.8039169311523 55.11057281494141 119.8036499023438 55.10091400146484 119.8028717041016 C 55.09520721435547 119.8024063110352 55.08329010009766 119.8014450073242 55.07759094238281 119.8009796142578 C 55.06991577148438 119.8003540039063 55.06228637695313 119.7997360229492 55.05460357666016 119.7991104125977 C 55.05286407470703 119.7989654541016 55.05068969726563 119.7987899780273 55.0489501953125 119.7986450195313 C 55.03310394287109 119.7973556518555 55.01901245117188 119.7961959838867 55.003173828125 119.7948913574219 C 54.99440002441406 119.7941665649414 54.98850250244141 119.7936782836914 54.97970581054688 119.7929534912109 C 54.97090911865234 119.7922286987305 54.9659423828125 119.7918090820313 54.9571533203125 119.7910766601563 C 54.947509765625 119.7902755737305 54.94314575195313 119.7899169921875 54.93348693847656 119.7891082763672 C 54.92581176757813 119.7884674072266 54.91880798339844 119.7878799438477 54.9111328125 119.7872314453125 C 54.90148162841797 119.7864227294922 54.89652252197266 119.786003112793 54.88686370849609 119.7851867675781 C 54.88599395751953 119.7851181030273 54.88402557373047 119.7849502563477 54.88316345214844 119.7848739624023 C 54.85940551757813 119.7828750610352 54.83766937255859 119.7810211181641 54.81392669677734 119.7789916992188 C 54.80623626708984 119.7783355712891 54.79827117919922 119.7776489257813 54.79059600830078 119.776985168457 C 54.78189849853516 119.776237487793 54.77640533447266 119.775764465332 54.76762390136719 119.7750091552734 C 54.75796508789063 119.774169921875 54.7542724609375 119.7738571166992 54.74462890625 119.7730178833008 C 54.73783111572266 119.7724304199219 54.72814178466797 119.7715835571289 54.72133636474609 119.7709884643555 C 54.72046661376953 119.7709121704102 54.71743011474609 119.7706527709961 54.71656799316406 119.7705764770508 C 54.68492126464844 119.7678146362305 54.65628814697266 119.7652969360352 54.62465667724609 119.7624893188477 C 54.61579895019531 119.7617034912109 54.60927581787109 119.761116027832 54.60050964355469 119.7603378295898 C 54.59175109863281 119.7595596313477 54.58644866943359 119.7590789794922 54.57767486572266 119.7582931518555 C 54.56891632080078 119.7575149536133 54.56185150146484 119.7568740844727 54.55307769775391 119.7560882568359 C 54.55220794677734 119.7560119628906 54.55228424072266 119.7560195922852 54.55141448974609 119.7559356689453 C 54.51979827880859 119.7530899047852 54.48938751220703 119.7503280639648 54.45777893066406 119.7474365234375 C 54.44905090332031 119.7466354370117 54.44441223144531 119.746208190918 54.43563842773438 119.7454071044922 C 54.42909240722656 119.7448043823242 54.41953277587891 119.7439193725586 54.41297149658203 119.7433166503906 C 54.40535736083984 119.7426071166992 54.39739227294922 119.7418746948242 54.38972473144531 119.7411651611328 C 54.38010406494141 119.7402725219727 54.37296295166016 119.7396087646484 54.36333465576172 119.7387084960938 C 54.36246490478516 119.7386322021484 54.36293792724609 119.7386703491211 54.36206817626953 119.7385940551758 C 54.34627532958984 119.7371215820313 54.33077239990234 119.7356719970703 54.31498718261719 119.7341842651367 C 54.31498718261719 119.7341842651367 54.31465148925781 119.7341537475586 54.31465148925781 119.7341537475586 C 54.30502319335938 119.7332534790039 54.29714965820313 119.7325057983398 54.28752136230469 119.7315979003906 C 54.27986907958984 119.7308731079102 54.27150726318359 119.7300872802734 54.26384735107422 119.7293548583984 C 54.25643920898438 119.7286529541016 54.24702453613281 119.7277603149414 54.23961639404297 119.7270584106445 C 54.23306274414063 119.726432800293 54.22412109375 119.7255783081055 54.21756744384766 119.7249526977539 C 54.20993041992188 119.7242202758789 54.20297241210938 119.7235488891602 54.19530487060547 119.7228164672852 C 54.18567657470703 119.7218933105469 54.18199157714844 119.7215423583984 54.17240905761719 119.7206192016602 C 54.16278839111328 119.7196884155273 54.15481567382813 119.7189178466797 54.14513397216797 119.7179794311523 C 54.13748931884766 119.7172393798828 54.12945556640625 119.7164611816406 54.12181854248047 119.7157135009766 C 54.11416625976563 119.714973449707 54.10539245605469 119.7141189575195 54.09774017333984 119.7133712768555 C 54.09207153320313 119.7128143310547 54.08068084716797 119.7117080688477 54.07501220703125 119.7111511230469 C 54.06847381591797 119.7105102539063 54.05812072753906 119.7094879150391 54.05157470703125 119.7088470458984 C 54.04393005371094 119.7080917358398 54.03725433349609 119.7074356079102 54.02964019775391 119.7066802978516 C 54.02175140380859 119.7059020996094 54.01665496826172 119.7053985595703 54.00877380371094 119.7046203613281 C 54.00877380371094 119.7046203613281 54.0069580078125 119.7044372558594 54.0069580078125 119.7044372558594 C 53.99118804931641 119.7028732299805 53.97708129882813 119.7014694213867 53.96131134033203 119.6998977661133 C 53.95368957519531 119.6991348266602 53.94532775878906 119.6982955932617 53.93768310546875 119.6975250244141 C 53.93002319335938 119.6967620849609 53.92344665527344 119.6960983276367 53.91581726074219 119.6953277587891 C 53.91014862060547 119.6947631835938 53.89933776855469 119.6936645507813 53.89366149902344 119.6930923461914 C 53.88713073730469 119.6924362182617 53.87891387939453 119.6916046142578 53.87238311767578 119.6909408569336 C 53.86302185058594 119.6899871826172 53.85562896728516 119.6892395019531 53.84627532958984 119.6882858276367 C 53.84454345703125 119.6881103515625 53.84265899658203 119.6879196166992 53.84093475341797 119.687744140625 C 53.82518005371094 119.6861343383789 53.81128692626953 119.6847152709961 53.7955322265625 119.6830978393555 C 53.78793334960938 119.6823120117188 53.78077697753906 119.6815795898438 53.77313232421875 119.6807861328125 C 53.76746368408203 119.6802062988281 53.75652313232422 119.6790771484375 53.75086212158203 119.6784896850586 C 53.74432373046875 119.6778106689453 53.73436737060547 119.6767807006836 53.72785949707031 119.6761016845703 C 53.72132110595703 119.675422668457 53.71133422851563 119.6743850708008 53.70480346679688 119.6737060546875 C 53.69629669189453 119.6728134155273 53.69110107421875 119.6722717285156 53.68260955810547 119.67138671875 C 53.68001556396484 119.6711120605469 53.67735290527344 119.6708374023438 53.67476654052734 119.6705627441406 C 53.65901947021484 119.6689147949219 53.6456298828125 119.6675109863281 53.62989044189453 119.6658477783203 C 53.62117767333984 119.664924621582 53.61528778076172 119.664306640625 53.60655975341797 119.6633834838867 C 53.59980010986328 119.6626586914063 53.59168243408203 119.6618041992188 53.58492279052734 119.6610870361328 C 53.57837677001953 119.6603927612305 53.56826782226563 119.659309387207 53.56175994873047 119.6586151123047 C 53.55323791503906 119.6577072143555 53.54738616943359 119.6570816040039 53.53889465332031 119.6561737060547 C 53.53127288818359 119.6553573608398 53.52198028564453 119.6543579101563 53.51435852050781 119.6535415649414 C 53.51348876953125 119.653450012207 53.51111602783203 119.653190612793 53.51025390625 119.6530990600586 C 53.49452209472656 119.6514053344727 53.48051452636719 119.6498947143555 53.46478271484375 119.648193359375 C 53.45801544189453 119.6474609375 53.44896697998047 119.6464767456055 53.44220733642578 119.6457443237305 C 53.43568420410156 119.6450347900391 53.42637634277344 119.6440200805664 53.41986846923828 119.643310546875 C 53.41335296630859 119.6426010131836 53.4036865234375 119.6415405273438 53.39717102050781 119.6408309936523 C 53.39065551757813 119.6401138305664 53.37911224365234 119.6388473510742 53.37259674072266 119.6381378173828 C 53.36498260498047 119.6372985839844 53.35739898681641 119.6364669799805 53.34978485107422 119.6356201171875 C 53.34806060791016 119.6354370117188 53.34647369384766 119.6352615356445 53.34474945068359 119.6350708007813 C 53.32903289794922 119.6333312988281 53.31483459472656 119.6317596435547 53.29911804199219 119.630012512207 C 53.29911804199219 119.630012512207 53.29769897460938 119.6298599243164 53.29769897460938 119.6298599243164 C 53.28984832763672 119.6289825439453 53.28345489501953 119.6282730102539 53.27559661865234 119.6273956298828 C 53.27559661865234 119.6273956298828 53.27433776855469 119.6272583007813 53.27433776855469 119.6272583007813 C 53.26475524902344 119.6261901855469 53.25855255126953 119.6254959106445 53.24900817871094 119.6244277954102 C 53.23942565917969 119.6233520507813 53.23556518554688 119.622917175293 53.22599029541016 119.6218414306641 C 53.21837615966797 119.6209869384766 53.21038055419922 119.6200866699219 53.20277404785156 119.6192321777344 C 53.19318389892578 119.6181488037109 53.18958282470703 119.6177444458008 53.1800537109375 119.6166610717773 C 53.156494140625 119.6139984130859 53.1351318359375 119.611572265625 53.11157989501953 119.6088790893555 C 53.10397338867188 119.6080093383789 53.09647369384766 119.6071472167969 53.08885192871094 119.6062774658203 C 53.08123016357422 119.6054000854492 53.07379913330078 119.6045455932617 53.06618499755859 119.6036682128906 C 53.05857086181641 119.6027984619141 53.05015563964844 119.6018218994141 53.04254913330078 119.600944519043 C 53.03493499755859 119.6000671386719 53.02707672119141 119.5991592407227 53.01947021484375 119.598274230957 C 53.01774597167969 119.5980758666992 53.01664733886719 119.5979537963867 53.01493072509766 119.5977478027344 C 52.99138641357422 119.5950241088867 52.96929931640625 119.5924453735352 52.94577026367188 119.5896911621094 C 52.94577026367188 119.5896911621094 52.94482421875 119.5895843505859 52.94482421875 119.5895843505859 C 52.93525695800781 119.5884628295898 52.92758178710938 119.5875625610352 52.91806030273438 119.5864410400391 C 52.91046142578125 119.5855484008789 52.90316772460938 119.5846862792969 52.89556121826172 119.5837860107422 C 52.88991546630859 119.583122253418 52.87836456298828 119.5817642211914 52.87275695800781 119.5810928344727 C 52.86405181884766 119.5800628662109 52.85918426513672 119.5794830322266 52.85047912597656 119.5784530639648 C 52.82695770263672 119.5756607055664 52.80445861816406 119.5729751586914 52.78095245361328 119.5701599121094 C 52.78095245361328 119.5701599121094 52.78087615966797 119.5701522827148 52.78087615966797 119.5701522827148 C 52.77132415771484 119.5690078735352 52.76409912109375 119.5681381225586 52.75453948974609 119.5669860839844 C 52.74607849121094 119.5659637451172 52.73875427246094 119.5650787353516 52.73029327392578 119.5640640258789 C 52.72354125976563 119.5632476806641 52.71551513671875 119.5622787475586 52.70883941650391 119.5614700317383 C 52.70014953613281 119.560417175293 52.69483184814453 119.5597610473633 52.68603515625 119.5587005615234 C 52.65470123291016 119.5548934936523 52.625244140625 119.5512924194336 52.59392547607422 119.5474319458008 C 52.58531951904297 119.5463714599609 52.57991027832031 119.5457077026367 52.57122039794922 119.5446319580078 C 52.56448364257813 119.5438079833984 52.55577850341797 119.542724609375 52.54904937744141 119.5418930053711 C 52.53950500488281 119.5407104492188 52.53469085693359 119.5401153564453 52.525146484375 119.5389251708984 C 52.51646423339844 119.537841796875 52.50955200195313 119.5369873046875 52.50086975097656 119.5359039306641 C 52.50001525878906 119.5357971191406 52.49943542480469 119.5357284545898 52.49858093261719 119.5356216430664 C 52.48292541503906 119.5336685180664 52.4678955078125 119.5317840576172 52.45224761962891 119.5298233032227 C 52.45224761962891 119.5298233032227 52.45109558105469 119.5296783447266 52.45109558105469 119.5296783447266 C 52.44241333007813 119.5285873413086 52.43426513671875 119.5275650024414 52.42564392089844 119.5264739990234 C 52.41720581054688 119.5254135131836 52.40982055664063 119.5244827270508 52.40138244628906 119.5234146118164 C 52.39576721191406 119.522705078125 52.38465118408203 119.5213012695313 52.37902069091797 119.5205841064453 C 52.37143707275391 119.5196228027344 52.36362457275391 119.5186309814453 52.35603332519531 119.5176696777344 C 52.34735870361328 119.5165634155273 52.34330749511719 119.5160522460938 52.33462524414063 119.5149383544922 C 52.31116485595703 119.5119476318359 52.28831481933594 119.5090255737305 52.26486206054688 119.5060043334961 C 52.26486206054688 119.5060043334961 52.26317596435547 119.5057830810547 52.26317596435547 119.5057830810547 C 52.25535583496094 119.5047836303711 52.24949645996094 119.504020690918 52.24167633056641 119.5030136108398 C 52.24082183837891 119.5029067993164 52.24069213867188 119.5028839111328 52.23983001708984 119.5027770996094 C 52.23201751708984 119.5017700195313 52.22685241699219 119.5010986328125 52.21903991699219 119.5000839233398 C 52.21817779541016 119.4999771118164 52.21701812744141 119.4998245239258 52.21616363525391 119.4997177124023 C 52.20835113525391 119.4987030029297 52.20234680175781 119.4979248046875 52.19453430175781 119.4969100952148 C 52.19453430175781 119.4969100952148 52.19376373291016 119.4968109130859 52.19376373291016 119.4968109130859 C 52.15470123291016 119.4917373657227 52.11600494384766 119.4866714477539 52.07695770263672 119.4815139770508 C 52.07695770263672 119.4815139770508 52.07675170898438 119.4814910888672 52.07675170898438 119.4814910888672 C 52.06113433837891 119.4794311523438 52.0457763671875 119.4773941040039 52.03016662597656 119.4753265380859 C 52.03016662597656 119.4753265380859 52.02993774414063 119.4752960205078 52.02993774414063 119.4752960205078 C 51.98309326171875 119.4690780639648 51.93667602539063 119.4628601074219 51.88986968994141 119.4565353393555 C 51.88986968994141 119.4565353393555 51.88924407958984 119.4564514160156 51.88924407958984 119.4564514160156 C 51.83463287353516 119.4490737915039 51.78047943115234 119.4416809082031 51.72591400146484 119.4341506958008 C 51.72591400146484 119.4341506958008 51.72568511962891 119.4341201782227 51.72568511962891 119.4341201782227 C 51.71788787841797 119.4330444335938 51.71120452880859 119.4321212768555 51.70341491699219 119.4310455322266 C 51.70256042480469 119.4309234619141 51.70252227783203 119.4309234619141 51.70166778564453 119.4308013916016 C 51.69387817382813 119.4297256469727 51.68720245361328 119.4288024902344 51.67940521240234 119.4277191162109 C 51.67940521240234 119.4277191162109 51.67889404296875 119.4276504516602 51.67889404296875 119.4276504516602 C 51.63993072509766 119.4222412109375 51.60135650634766 119.4168548583984 51.56241607666016 119.4113693237305 C 51.56156158447266 119.4112548828125 51.56275939941406 119.4114227294922 51.56191253662109 119.4113006591797 C 51.55412292480469 119.4102020263672 51.5474853515625 119.4092712402344 51.53969573974609 119.4081726074219 C 51.53884124755859 119.4080505371094 51.53894805908203 119.4080657958984 51.53809356689453 119.4079437255859 C 51.53030395507813 119.4068450927734 51.52407836914063 119.4059677124023 51.51629638671875 119.4048614501953 C 51.51544189453125 119.4047393798828 51.51598358154297 119.4048156738281 51.51512908935547 119.4047012329102 C 51.48398590087891 119.4002914428711 51.45336151123047 119.3959274291992 51.42223358154297 119.391471862793 C 51.42223358154297 119.391471862793 51.42167663574219 119.3913955688477 51.42167663574219 119.3913955688477 C 51.40611267089844 119.3891677856445 51.39150238037109 119.3870697021484 51.37593841552734 119.3848266601563 C 51.37508392333984 119.3847045898438 51.37569427490234 119.3847961425781 51.37483978271484 119.3846740722656 C 51.3670654296875 119.3835525512695 51.36019897460938 119.3825607299805 51.35242462158203 119.3814392089844 C 51.35157012939453 119.3813171386719 51.35270690917969 119.381477355957 51.35186004638672 119.3813552856445 C 51.31295776367188 119.3757400512695 51.27517700195313 119.3702545166016 51.23630523681641 119.3645629882813 C 51.23545837402344 119.3644332885742 51.23502349853516 119.364372253418 51.23416900634766 119.3642501831055 C 51.22639465332031 119.3631134033203 51.22084045410156 119.3622970581055 51.21306610107422 119.3611526489258 C 51.21221160888672 119.3610305786133 51.21194458007813 119.3609924316406 51.21109008789063 119.3608627319336 C 51.20331573486328 119.3597259521484 51.19762420654297 119.35888671875 51.18984985351563 119.3577423095703 C 51.18899536132813 119.3576202392578 51.18904876708984 119.3576278686523 51.18819427490234 119.3574981689453 C 51.14156341552734 119.3506393432617 51.09640502929688 119.3439407348633 51.04981231689453 119.3369674682617 C 51.04981231689453 119.3369674682617 51.04801940917969 119.3367004394531 51.04801940917969 119.3367004394531 C 51.00141906738281 119.3297271728516 50.95622253417969 119.3229141235352 50.90966033935547 119.3158340454102 C 50.90966033935547 119.3158340454102 50.90834045410156 119.3156356811523 50.90834045410156 119.3156356811523 C 50.90058135986328 119.3144607543945 50.89435577392578 119.3135070800781 50.8865966796875 119.3123245239258 C 50.8865966796875 119.3123245239258 50.88501739501953 119.3120880126953 50.88501739501953 119.3120880126953 C 50.87725830078125 119.310905456543 50.87258911132813 119.3101959228516 50.86483001708984 119.3090057373047 C 50.86312866210938 119.3087463378906 50.86294555664063 119.3087158203125 50.86124420166016 119.3084564208984 C 50.64399719238281 119.275260925293 50.42877960205078 119.2411575317383 50.21230316162109 119.2056427001953 C 50.21230316162109 119.2056427001953 50.21176910400391 119.2055511474609 50.21176910400391 119.2055511474609 C 49.99530029296875 119.170036315918 49.77967071533203 119.1334381103516 49.56398773193359 119.0956039428711 C 49.56398773193359 119.0956039428711 49.56353759765625 119.0955276489258 49.56353759765625 119.0955276489258 C 39.10669708251953 117.2615280151367 29.58127593994141 112.7191314697266 21.73809814453125 106.2192535400391 C 18.76938629150391 103.7514572143555 18.35882568359375 99.3448486328125 20.82258605957031 96.37081909179688 C 23.28888702392578 93.39370727539063 27.70164489746094 92.9796142578125 30.67876434326172 95.44593811035156 C 38.89426422119141 102.251823425293 49.30741119384766 106 60 106 C 85.364501953125 106 106 85.364501953125 106 60 C 106 34.635498046875 85.364501953125 14 60 14 C 56.13399887084961 14 53 10.86599731445313 53 7 C 53 3.134002685546875 56.13399887084961 0 60 0 C 60 0 60 0 60 0 Z" stroke="none" fill="#b18cfd"/>
        </g>
        <text id="_65_there" data-name="65% there" transform="matrix(0.999, -0.052, 0.052, 0.999, 1308.359, 629.719)" fill="#272d3b" font-size="15" font-family="SegoeUI, Segoe UI"><tspan x="0" y="0">65% there</tspan></text>
      </g>
    </g>
  </g>
</svg>
