<svg xmlns="http://www.w3.org/2000/svg" xmlns:xlink="http://www.w3.org/1999/xlink" width="141" height="141" viewBox="0 0 141 141">
  <defs>
    <filter id="Ellipse_2" x="0" y="0" width="141" height="141" filterUnits="userSpaceOnUse">
      <feOffset dy="3" input="SourceAlpha"/>
      <feGaussianBlur stdDeviation="10.5" result="blur"/>
      <feFlood flood-opacity="0.161"/>
      <feComposite operator="in" in2="blur"/>
      <feComposite in="SourceGraphic"/>
    </filter>
  </defs>
  <g id="Group_178" data-name="Group 178" transform="translate(-651.5 -468.5)">
    <g transform="matrix(1, 0, 0, 1, 651.5, 468.5)" filter="url(#Ellipse_2)">
      <circle id="Ellipse_2-2" data-name="Ellipse 2" cx="39" cy="39" r="39" transform="translate(31.5 28.5)" fill="#b18cfd"/>
    </g>
    <path id="circle-plus" d="M16.874,33.749A16.874,16.874,0,1,0,0,16.874,16.873,16.873,0,0,0,16.874,33.749ZM15.292,22.675V18.456H11.074a1.582,1.582,0,1,1,0-3.164h4.219V11.074a1.582,1.582,0,0,1,3.164,0v4.219h4.219a1.582,1.582,0,1,1,0,3.164H18.456v4.219a1.582,1.582,0,0,1-3.164,0Z" transform="translate(705.126 519.126)" fill="#fff"/>
  </g>
</svg>
