<svg xmlns="http://www.w3.org/2000/svg" width="439.931" height="353.486" viewBox="0 0 439.931 353.486">
  <g id="undraw_upgrade_06a0" transform="translate(-13.843 0)">
    <path id="Path_88" data-name="Path 88" d="M493.63,281.3c.241-3.092-15.76-5.723-15.76-8.9,0-49.7-33.022-87.3-70.227-87.3-11.846,0-23.014,4.11-32.679,11.3a150.267,150.267,0,0,0-235.539,52.38c-1.295-.1-2.6-.155-3.921-.155-37.226,0-75.31,34.543-69.691,62.17,0,18.268,6.392,63.1,13.394,77.292h0c0,44.717,32.046,80.98,71.575,80.98h49.836l.221-.425c2.929-5.316,9.943-6.645,14.828-3.626a15.15,15.15,0,0,0,3.934,2.192c5.772,1.37,9.648-9.011,15.49-8,2.933.507,5.22,3.9,8.17,3.549,1.957-.233,3.439-2.064,5.278-2.841,2.945-1.251,5.931.484,7.994,3.3,1.2-3.85,1.189-8.413,3.125-11.943,2.929-5.316,9.943-6.645,14.828-3.626a15.151,15.151,0,0,0,3.934,2.192c5.772,1.37,9.649-9.011,15.49-8,2.933.507,5.22,3.9,8.17,3.549,1.957-.233,3.439-2.064,5.278-2.841,4.583-1.95,9.277,3.343,10.4,8.678a41.2,41.2,0,0,1,.69,7.143c3.954-2.142,7.3-8.166,11.809-7.385,2.933.507,5.221,3.9,8.17,3.549,1.957-.233,3.439-2.064,5.278-2.841,4.583-1.95,9.277,3.343,10.4,8.677a50.384,50.384,0,0,1,.743,8.677H437.43c31.045,0,56.2-28.462,56.2-63.574h0a113.013,113.013,0,0,0,9.939-47.069C503.568,327.8,511.117,297.556,493.63,281.3Z" transform="translate(-51.414 -115.583)" fill="#b18cfd" opacity="0.1"/>
    <ellipse id="Ellipse_7" data-name="Ellipse 7" cx="39.467" cy="40.325" rx="39.467" ry="40.325" transform="translate(236.489 41.183)" fill="#ff007c"/>
    <path id="Path_89" data-name="Path 89" d="M594.99,167.139l12.729-12.729,12.857,12.729h-8.737v9.733h-8.111V167.2Z" transform="translate(-332.143 -83.889)" fill="#fff"/>
    <path id="Path_90" data-name="Path 90" d="M762.762,451.135a13.587,13.587,0,0,0-25.407-3.654,10.874,10.874,0,0,0,1.178,21.685h23.594a9.1,9.1,0,0,0,9.075-9.052A8.961,8.961,0,0,0,762.762,451.135Zm-10.436,5.353v6.878h-5.786v-6.9h-6.188l9.075-9.075,9.07,9.075Z" transform="translate(-434.82 -267.903)" fill="#fff"/>
    <path id="Path_91" data-name="Path 91" d="M914.762,698.135a13.587,13.587,0,0,0-25.407-3.654,10.874,10.874,0,0,0,1.178,21.685h23.594a9.1,9.1,0,0,0,9.075-9.052A8.961,8.961,0,0,0,914.762,698.135Zm-10.436,5.353v6.878h-5.787v-6.9h-6.188l9.075-9.075,9.07,9.075Z" transform="translate(-517.4 -402.095)" fill="#fff"/>
    <path id="Path_92" data-name="Path 92" d="M331.917,512.816a21.009,21.009,0,0,0-39.277-5.608,16.807,16.807,0,0,0,1.827,33.514h36.468a14.067,14.067,0,0,0,14.021-14.03A13.852,13.852,0,0,0,331.917,512.816Zm-16.126,8.266v10.66h-8.974v-10.66h-9.536l14.026-14.021,14.012,14.021Z" transform="translate(-190.345 -298.171)" fill="#fff"/>
    <path id="Path_93" data-name="Path 93" d="M730.221,595.615v-11.1l5.115,5.115,1.279-1.325L729.307,581,722,588.307l1.279,1.279,5.115-5.069v11.1Z" transform="translate(-431.746 -344.433)" fill="#fff"/>
    <path id="Path_94" data-name="Path 94" d="M171.221,628.615v-11.1l5.115,5.115,1.279-1.325L170.307,614,163,621.307l1.279,1.279,5.115-5.069v11.1Z" transform="translate(-128.048 -362.361)" fill="#fff"/>
    <path id="Path_95" data-name="Path 95" d="M731.666,370.972v-8.317l3.837,3.836.959-.991-5.481-5.481L725.5,365.5l.959.959,3.836-3.8v8.317Z" transform="translate(-433.648 -224.377)" fill="#fff"/>
    <path id="Path_96" data-name="Path 96" d="M512.666,238.972v-8.317l3.836,3.836.959-.991-5.481-5.481L506.5,233.5l.959.959,3.836-3.8v8.317Z" transform="translate(-314.667 -152.663)" fill="#fff"/>
    <path id="Path_97" data-name="Path 97" d="M430.666,418.972v-8.317l3.836,3.836.959-.991-5.481-5.481L424.5,413.5l.959.959,3.836-3.8v8.317Z" transform="translate(-270.118 -250.455)" fill="#fff"/>
    <path id="Path_98" data-name="Path 98" d="M944.666,502.972v-8.317l3.836,3.836.959-.991-5.481-5.48L938.5,497.5l.959.959,3.836-3.8v8.317Z" transform="translate(-549.368 -296.091)" fill="#fff"/>
    <path id="Path_99" data-name="Path 99" d="M412.666,663.972v-8.317l3.836,3.836.959-.991-5.481-5.48L406.5,658.5l.959.959,3.836-3.8v8.317Z" transform="translate(-260.339 -383.56)" fill="#fff"/>
    <circle id="Ellipse_8" data-name="Ellipse 8" cx="3.432" cy="3.432" r="3.432" transform="translate(348.025 130.412)" fill="#fff"/>
    <circle id="Ellipse_9" data-name="Ellipse 9" cx="2.574" cy="2.574" r="2.574" transform="translate(90.633 123.548)" fill="#fff"/>
    <circle id="Ellipse_10" data-name="Ellipse 10" cx="2.574" cy="2.574" r="2.574" transform="translate(171.283 193.902)" fill="#fff"/>
    <ellipse id="Ellipse_11" data-name="Ellipse 11" cx="1.716" cy="0.858" rx="1.716" ry="0.858" transform="translate(411.516 241.949)" fill="#fff"/>
    <circle id="Ellipse_12" data-name="Ellipse 12" cx="0.858" cy="0.858" r="0.858" transform="translate(310.275 279.7)" fill="#fff"/>
    <circle id="Ellipse_13" data-name="Ellipse 13" cx="1.716" cy="1.716" r="1.716" transform="translate(133.532 310.587)" fill="#fff"/>
    <circle id="Ellipse_14" data-name="Ellipse 14" cx="0.858" cy="0.858" r="0.858" transform="translate(34.006 200.766)" fill="#fff"/>
    <ellipse id="Ellipse_15" data-name="Ellipse 15" cx="1.716" cy="0.858" rx="1.716" ry="0.858" transform="translate(46.018 171.595)" fill="#fff"/>
    <circle id="Ellipse_16" data-name="Ellipse 16" cx="1.716" cy="1.716" r="1.716" transform="translate(341.162 324.314)" fill="#fff"/>
    <circle id="Ellipse_17" data-name="Ellipse 17" cx="1.716" cy="1.716" r="1.716" transform="translate(87.201 276.268)" fill="#fff"/>
    <ellipse id="Ellipse_18" data-name="Ellipse 18" cx="0.858" cy="1.716" rx="0.858" ry="1.716" transform="translate(119.804 151.003)" fill="#fff"/>
    <path id="Path_100" data-name="Path 100" d="M368.572,219.079h-7.079V212h-.913v7.079H353.5v.913h7.079v7.079h.913v-7.079h7.079Z" transform="translate(-200.945 -115.177)" fill="#fff"/>
    <path id="Path_101" data-name="Path 101" d="M753.134,508.788h-4.289V504.5h-.557v4.289H744v.557h4.289v4.289h.557v-4.289h4.289Z" transform="translate(-413.099 -274.089)" fill="#fff"/>
    <path id="Path_102" data-name="Path 102" d="M696.134,683.788h-4.289V679.5h-.557v4.288H687v.557h4.288v4.289h.557v-4.289h4.289Z" transform="translate(-382.131 -369.164)" fill="#fff"/>
    <path id="Path_103" data-name="Path 103" d="M229.134,661.789h-4.289V657.5h-.557v4.289H220v.557h4.289v4.288h.557v-4.288h4.289Z" transform="translate(-128.416 -357.212)" fill="#fff"/>
    <path id="Path_104" data-name="Path 104" d="M163.134,485.788h-4.289V481.5h-.557v4.289H154v.557h4.289v4.289h.557v-4.289h4.289Z" transform="translate(-92.559 -261.593)" fill="#fff"/>
    <path id="Path_105" data-name="Path 105" d="M448.456,666.6l.032-2.571-1.544-.018-.032,2.571-2.663,7.691,6.686.078Z" transform="translate(-250.248 -360.749)" fill="#3f3d56"/>
    <path id="Path_106" data-name="Path 106" d="M463.016,666.838l.032-2.635-1.585-.023-.032,2.64-2.731,7.887,6.86.078Z" transform="translate(-258.099 -360.841)" fill="#3f3d56"/>
    <path id="Path_107" data-name="Path 107" d="M477.746,666.95l.032-2.571-1.544-.018-.032,2.571-2.663,7.691,6.691.078Z" transform="translate(-266.161 -360.939)" fill="#3f3d56"/>
    <path id="Path_108" data-name="Path 108" d="M582.036,668.258l.032-2.64-1.585-.018-.032,2.64-2.731,7.883,6.86.082Z" transform="translate(-322.761 -361.613)" fill="#3f3d56"/>
    <path id="Path_109" data-name="Path 109" d="M597.056,668.438l.032-2.64-1.585-.018-.032,2.64L592.74,676.3l6.86.082Z" transform="translate(-330.921 -361.711)" fill="#3f3d56"/>
    <path id="Path_110" data-name="Path 110" d="M612.076,668.618l.032-2.64-1.585-.018-.032,2.64-2.731,7.883,6.86.082Z" transform="translate(-339.081 -361.808)" fill="#3f3d56"/>
    <path id="Path_111" data-name="Path 111" d="M513.856,667.448l.032-2.64-1.585-.018-.032,2.64-2.731,7.883,6.86.082Z" transform="translate(-285.719 -361.173)" fill="#3f3d56"/>
    <path id="Path_112" data-name="Path 112" d="M528.876,667.628l.032-2.64-1.58-.018-.032,2.64-2.736,7.883,6.86.082Z" transform="translate(-293.88 -361.27)" fill="#3f3d56"/>
    <path id="Path_113" data-name="Path 113" d="M543.9,667.808l.032-2.64-1.58-.018-.032,2.64-2.736,7.883,6.865.082Z" transform="translate(-302.04 -361.368)" fill="#3f3d56"/>
    <path id="Path_114" data-name="Path 114" d="M533.313,299.54c-.1-9.089-10.8-25.2-16.579-25.27s-16.341,15.789-16.652,24.872h-.274l-2.179,182.6,33.514.4,2.179-182.593Z" transform="translate(-309.848 -177.79)" fill="#3f3d56"/>
    <path id="Path_115" data-name="Path 115" d="M667.358,301.14c-.1-9.089-10.8-25.2-16.579-25.27s-16.341,15.789-16.647,24.873h-.274l-2.179,182.6,33.514.4,2.179-182.593Z" transform="translate(-382.676 -178.659)" fill="#3f3d56"/>
    <path id="Path_116" data-name="Path 116" d="M600.2,99.977c-.05-13.322-10.669-36.889-16.442-36.957s-16.442,23.242-16.793,36.537h-.27L563.5,367.3l33.509.4,3.2-267.747Z" transform="translate(-345.635 -63.02)" fill="#2f2e41"/>
    <path id="Path_117" data-name="Path 117" d="M509.13,380.283l12.733-12.733,12.852,12.733h-8.732v9.732h-8.116v-9.673Z" transform="translate(-285.497 -199.686)" fill="#00ccf2"/>
    <g id="Group_53" data-name="Group 53" transform="translate(187.791 0.466)" opacity="0.1">
      <path id="Path_118" data-name="Path 118" d="M641.87,304.739c3.466-8.088,10.235-16.524,14.446-16.474,5.481.064,15.355,14.519,16.474,23.749l.119-9.915h0c-.1-9.089-10.8-25.2-16.579-25.27-4.156-.05-10.8,8.166-14.3,16.158Z" transform="translate(-576.003 -179.646)"/>
      <path id="Path_119" data-name="Path 119" d="M499.824,196.8h.274c.306-9.084,10.874-24.941,16.647-24.872,3.772.046,9.641,6.928,13.29,14.231L530.922,112h.269c.356-13.318,11.021-36.628,16.793-36.537,5.453.064,15.236,21.1,16.341,34.664l.1-9.134h0c-.05-13.322-10.669-36.889-16.442-36.957S531.547,87.282,531.2,100.6h-.269l-.886,74.152c-3.654-7.307-9.518-14.185-13.29-14.231-5.773-.068-16.341,15.789-16.647,24.873h-.274l-2.179,182.6h.137Z" transform="translate(-497.65 -64.04)"/>
    </g>
    <rect id="Rectangle_8" data-name="Rectangle 8" width="6.335" height="13.724" rx="3.167" transform="translate(234.954 11.557) rotate(0.68)" fill="#ececf3"/>
  </g>
</svg>
