<svg xmlns="http://www.w3.org/2000/svg" xmlns:xlink="http://www.w3.org/1999/xlink" width="1103.246" height="681.162" viewBox="0 0 1103.246 681.162">
  <defs>
    <linearGradient id="linear-gradient" x1="27.757" y1="1" x2="27.757" y2="0.003" gradientUnits="objectBoundingBox">
      <stop offset="0" stop-color="gray" stop-opacity="0.251"/>
      <stop offset="0.54" stop-color="gray" stop-opacity="0.122"/>
      <stop offset="1" stop-color="gray" stop-opacity="0.102"/>
    </linearGradient>
    <filter id="Ellipse_204" x="0" y="549.385" width="1103.246" height="131.777" filterUnits="userSpaceOnUse">
      <feOffset dy="16" input="SourceAlpha"/>
      <feGaussianBlur stdDeviation="14.5" result="blur"/>
      <feFlood flood-opacity="0.412"/>
      <feComposite operator="in" in2="blur"/>
      <feComposite in="SourceGraphic"/>
    </filter>
  </defs>
  <g id="undraw_update_uxn2" transform="translate(43.5)">
    <path id="Path_284" data-name="Path 284" d="M706.694,345.234a28.131,28.131,0,0,0-16.324,1.781,24.053,24.053,0,0,1-19.693-.088,27.508,27.508,0,0,0-23.05.448,14.249,14.249,0,0,1-6.639,1.664c-9.345,0-17.122-9.413-18.738-21.834a18.1,18.1,0,0,0,4.673-5.042c5.48-8.829,13.968-14.494,23.5-14.494s17.911,5.6,23.362,14.338a18.037,18.037,0,0,0,15.575,8.527h.243C697.067,330.574,703.511,336.541,706.694,345.234Z" transform="translate(-92.468 -135.385)" fill="#ff007c" opacity="0.1"/>
    <path id="Path_285" data-name="Path 285" d="M735.119,305.3l-15.107,9.588,9.169-16.684a14.99,14.99,0,0,0-9.14-3.261H719.8a17.664,17.664,0,0,1-3.134-.224l-5.1,3.241,2.2-3.991a18.183,18.183,0,0,1-8.955-6.814L695.638,293l5.84-10.523c-5.364-6.434-12.586-10.386-20.529-10.386-9.53,0-18.018,5.675-23.5,14.5a17.521,17.521,0,0,1-15.575,8.371h-.516c-10.522,0-19.049,11.934-19.049,26.642s8.527,26.642,19.049,26.642A14.326,14.326,0,0,0,648,346.6a27.472,27.472,0,0,1,23.051-.458,24.053,24.053,0,0,0,19.6.049,27.538,27.538,0,0,1,22.856.438,14.261,14.261,0,0,0,6.561,1.626c10.523,0,19.05-11.924,19.05-26.642a33.835,33.835,0,0,0-4-16.3Z" transform="translate(-92.47 -134.439)" fill="#ff007c" opacity="0.1"/>
    <path id="Path_286" data-name="Path 286" d="M578.119,407.082c.594-.088,1.188-.2,1.772-.35a5.581,5.581,0,0,1-.5,1.694,7.289,7.289,0,0,1-2.765,2.433.847.847,0,0,0-1.071-.068c-1.256.74-2.258,1.83-3.592,2.473-.467.234-.973.419-1.412.672a7.724,7.724,0,0,0-2.628,2.735,1.947,1.947,0,0,0-.312,1.947,1.577,1.577,0,0,0,.535.477,3.106,3.106,0,0,0,1.85.555,6.92,6.92,0,0,0,1.168-.243c.389-.068,1.051,0,1.577-.1a8.867,8.867,0,0,0,2.219-.574l2.6-.905a14.315,14.315,0,0,0,2.151-.886c.409-.214.8-.477,1.227-.681a9.611,9.611,0,0,1,1.46-.516l1.479-.438a1.591,1.591,0,0,1,.672-.088c.2,0,.379.166.583.224a1.743,1.743,0,0,0,.974-.088l1.723-.5a3.243,3.243,0,0,0,1.022-.419,3.133,3.133,0,0,0,.915-2.638,20.034,20.034,0,0,0-.506-4.371,1.382,1.382,0,0,0-.555.418c-.175-.253-.38-.487-.564-.711a8.451,8.451,0,0,1-1.714-3.154,5.64,5.64,0,0,0,1.538-1.713,37.646,37.646,0,0,0-3.68-10.026c-.6-.973-1.294-1.947-1.947-2.92-1.791-2.842-2.161-6.434-4.205-9.092a1.577,1.577,0,0,1,0-1.859c.234-.3.613-.6.535-.974s-.331-.535-.224-.788.175-.195.282-.292c.341-.321.3-.876.331-1.353a6.681,6.681,0,0,1,1.489-3.241,1.881,1.881,0,0,1,.545-.594c.185-.117.4-.165.584-.282.662-.409.613-1.372.925-2.083.409-.974,1.441-1.421,2.122-2.181.857-.974,1.071-2.327,1.947-3.173a2.437,2.437,0,0,1,.292-.243,15.492,15.492,0,0,0-.526,4.439c-.087,5.13,1.178,10.445.584,15.575-.467,4.04,2.005,8.079,5.5,10.094a26.284,26.284,0,0,0,4.283,1.82c2.2.788,4.38,1.6,6.532,2.492q2.278.973,4.5,2.054a57.773,57.773,0,0,1,5.306,2.969,20.447,20.447,0,0,1,5.723,4.75,4.582,4.582,0,0,0,2.531-.974c.574.458,1.275.8,1.821,1.3a5.55,5.55,0,0,1,1.431,2.833h-.224l.078,1.518a.641.641,0,0,1-.058.38.747.747,0,0,1-.2.185l-1.168.788c-.847.574-1.781,1.294-1.83,2.326a1.157,1.157,0,0,0,.253.837,1.8,1.8,0,0,0,1.041.467,18.174,18.174,0,0,0,6.172.565,4.05,4.05,0,0,0,2.628-1.207,5.179,5.179,0,0,0,.974-2.521c.253-1.528.467-3.066.632-4.614a10.13,10.13,0,0,1,.623-3.057.361.361,0,0,1,.166-.2h.282a.409.409,0,0,0,.185-.292,18.69,18.69,0,0,0,.545-4.585,3.209,3.209,0,0,0-.185-1.178,2.356,2.356,0,0,0-1.626-1.256,12.542,12.542,0,0,0-2.093-.243,9.5,9.5,0,0,1-1.743-.331,1.676,1.676,0,0,0-.72-.088.516.516,0,0,0-.447.506.586.586,0,0,0,.1.243l-.594-.117c-.477-.087-1.158-.3-1.859-.467v-.37a.73.73,0,0,0-.409-.652l-10.016-5.354-1.879-.973c-4.108-2.2-8.352-4.225-12.46-6.425-.282.088-.506-.234-.584-.506s-.136-.623-.4-.74-.3-.068-.4-.175a.428.428,0,0,1-.068-.331c.136-2.005,1.567-3.845,1.275-5.84a7.057,7.057,0,0,1-.36-2.511,10.3,10.3,0,0,1,.76-1.587c.487-1.217,0-2.687.535-3.894a9.146,9.146,0,0,0,.73-2.473,16.931,16.931,0,0,1,1.528-4.867,8.663,8.663,0,0,1,1.411-2.151c.3-.331.643-.623.925-.973A7.9,7.9,0,0,0,607.6,354.6a18.1,18.1,0,0,0,.2-7.369,10.441,10.441,0,0,1-.467-2.482c0-.973.4-2.161-.087-2.969a2.6,2.6,0,0,0,.974-1.626,1.872,1.872,0,0,1,.136-.662,1.713,1.713,0,0,1,.633-.574,2.637,2.637,0,0,0,.974-2.608c.516.234,1.061-.292,1.3-.808s.438-1.158.973-1.373a7.476,7.476,0,0,1,1.139-.165c.6-.156.973-.74,1.4-1.2a10.709,10.709,0,0,1,3.222-2c3.358-1.7,6.1-4.41,8.761-7.077a29.757,29.757,0,0,0,3.777-4.273,13.8,13.8,0,0,0,.827-1.373h.068v.078a1.891,1.891,0,0,0,.136.5c.117.4.263.788.4,1.178a8.612,8.612,0,0,0,1.684,3.212,4.3,4.3,0,0,0,.38.341,3.925,3.925,0,0,0,.487.331,6,6,0,0,0,2.229.672c.292,0,.594.058.9.068h.9l6.133.166c-2.1-3.066-2.268-7.038-2.132-10.766.351-9.559,2.21-19.205.487-28.609a7.448,7.448,0,0,0-1.178-3.193,6.6,6.6,0,0,0-3.894-2.112,23.47,23.47,0,0,1-4.342-1.11,17.98,17.98,0,0,0-3.417-1.625,7.55,7.55,0,0,0-2.725,0c-1.11.165-2.21.36-3.31.584l-.263.058h-1.314l-.107.049-.1.049-.1.049-.1.049-.1.059-.087.058-.088.059-.088.068-.078.058-.087.078-.068.058-.088.087-.059.068a.464.464,0,0,0-.087.107v.058l-.107.156h0a2.775,2.775,0,0,0-.214.457,2.131,2.131,0,0,0-.068.234,4.407,4.407,0,0,0-.087.5v.759a3.084,3.084,0,0,0,.088.847,9.248,9.248,0,0,0-.438,15.643,4.265,4.265,0,0,1,0,.457v.1a12.441,12.441,0,0,1-.166,1.6,21.759,21.759,0,0,0-4.565-.4c-.915,0-1.83.078-2.755.156-.974-1.168-1.869-2.453-2.745-3.718l-2.025-2.969a29.941,29.941,0,0,1-1.947-3.047c-.5-.973-.886-1.947-1.431-2.92-1.139-1.947-3.008-3.563-3.232-5.792l-.535.117c-.292-.486-.662-.973-.8-1.265a24.7,24.7,0,0,1-1.684-4.945,7.647,7.647,0,0,0-.808-2.56,5.732,5.732,0,0,0-1.178-1.246,7.789,7.789,0,0,0-2.531-1.6,3.251,3.251,0,0,0-2.58.146c-.136-.049-.263-.107-.4-.146a3.134,3.134,0,0,0-2.862.331,3.894,3.894,0,0,0-1.266,2.658,6.591,6.591,0,0,0,.682,4.03,16.041,16.041,0,0,0,3.241,3.358,13.085,13.085,0,0,1,2.034,2.531,27.647,27.647,0,0,1-.155,6.152c-.146.876-.37,1.733-.448,2.609-.282,3.183,1.372,6.366.789,9.5a2.3,2.3,0,0,0,1.07,2.453,12.2,12.2,0,0,0,2.774.759c1.83.467,3.426,1.645,5.266,2.083.857.2,1.742.243,2.59.467h.136a6.161,6.161,0,0,0-1.363,2.589c-.37,1.6,0,3.3-.4,4.867a11.085,11.085,0,0,1-1.859,3.572l-4.458,6.444a41.537,41.537,0,0,1-3.28,4.312c-2.044,2.229-5.577,4-6.609,6.687l-.088-.195c-1.469,1.081-2.015,3.1-3.193,4.5-.564.682-1.275,1.236-1.9,1.859a20.91,20.91,0,0,0-2.064,3.066,46.755,46.755,0,0,0-4.75,7.563c-.652,1.411-1.158,2.92-1.674,4.341-2.044,5.753-5.373,11.214-6.756,17.171-.341,1.45-1.226,2.764-1.363,4.254a8.273,8.273,0,0,0,1.334,4.507c1.148,2.141,2.4,4.225,3.426,6.424.6,1.285,1.119,2.609,1.781,3.894s1.616,2.628,2.365,3.981A45.84,45.84,0,0,1,578.119,407.082Zm25.095-108.721-.175-.088a6.223,6.223,0,0,1-1.849-1.217c-1.625-1.752-2.336-4.38-2.842-6.726-.059-.273-.117-.555-.166-.837A39.783,39.783,0,0,1,603.214,298.362Z" transform="translate(-90.953 -134.36)" fill="url(#linear-gradient)"/>
    <path id="Path_287" data-name="Path 287" d="M596.36,275.6a7.547,7.547,0,0,0-.808-2.541,5.764,5.764,0,0,0-1.188-1.246,7.784,7.784,0,0,0-2.531-1.577,3.155,3.155,0,0,0-2.92.331,3.836,3.836,0,0,0-1.266,2.638,6.514,6.514,0,0,0,.682,4,16.71,16.71,0,0,0,3.241,3.339,12.653,12.653,0,0,1,2.122,2.638,7.367,7.367,0,0,0,.974,1.411,1.819,1.819,0,0,0,1.528.6,2.637,2.637,0,0,0,1.246-.73c.457-.4,1.7-1.129,1.743-1.772s-.974-1.694-1.178-2.18A24.612,24.612,0,0,1,596.36,275.6Z" transform="translate(-91.547 -134.384)" fill="#fbbebe"/>
    <path id="Path_288" data-name="Path 288" d="M622.752,300.918a22.229,22.229,0,0,0-6.142-.759c-3.456.049-7.019.886-10.309-.175a17.882,17.882,0,0,1-2.472-1.071,6.348,6.348,0,0,1-1.84-1.207c-1.635-1.742-2.346-4.351-2.852-6.678a43.588,43.588,0,0,1-.779-7.106,5.589,5.589,0,0,1-2.7.711,1.946,1.946,0,0,1-1.878-1.742,29,29,0,0,1-.126,6.619c-.146.866-.37,1.713-.448,2.589-.282,3.154,1.382,6.317.788,9.432a2.278,2.278,0,0,0,1.071,2.434,12.138,12.138,0,0,0,2.784.759c1.83.467,3.436,1.625,5.276,2.064.856.2,1.742.243,2.59.467,1.217.321,2.316.973,3.553,1.236.925.166,1.879.049,2.823.126s1.616.282,2.424.312a7.048,7.048,0,0,0,5.227-2.589,22.471,22.471,0,0,0,3.008-5.422Z" transform="translate(-91.695 -134.726)" fill="#f86d70"/>
    <path id="Path_289" data-name="Path 289" d="M622.752,300.918a22.229,22.229,0,0,0-6.142-.759c-3.456.049-7.019.886-10.309-.175a17.882,17.882,0,0,1-2.472-1.071,6.348,6.348,0,0,1-1.84-1.207c-1.635-1.742-2.346-4.351-2.852-6.678a43.588,43.588,0,0,1-.779-7.106,5.589,5.589,0,0,1-2.7.711,1.946,1.946,0,0,1-1.878-1.742,29,29,0,0,1-.126,6.619c-.146.866-.37,1.713-.448,2.589-.282,3.154,1.382,6.317.788,9.432a2.278,2.278,0,0,0,1.071,2.434,12.138,12.138,0,0,0,2.784.759c1.83.467,3.436,1.625,5.276,2.064.856.2,1.742.243,2.59.467,1.217.321,2.316.973,3.553,1.236.925.166,1.879.049,2.823.126s1.616.282,2.424.312a7.048,7.048,0,0,0,5.227-2.589,22.471,22.471,0,0,0,3.008-5.422Z" transform="translate(-91.695 -134.726)" opacity="0.1"/>
    <g id="Group_151" data-name="Group 151" transform="translate(295.911 133.533)" opacity="0.1">
      <path id="Path_290" data-name="Path 290" d="M482.634,666.277v5.013a18.787,18.787,0,0,1-37.574,0v-5.013a18.787,18.787,0,1,1,37.574,0Z" transform="translate(-383.669 -277.952)" fill="#3f3d56"/>
      <path id="Path_291" data-name="Path 291" d="M445.06,583.78v-5a18.787,18.787,0,1,1,37.574,0v5a18.575,18.575,0,0,1-.808,5.432,18.777,18.777,0,0,1-36.766-5.432Z" transform="translate(-383.669 -275.626)" fill="#3f3d56"/>
      <path id="Path_292" data-name="Path 292" d="M482.634,622.487V627.5a18.787,18.787,0,0,1-37.574,0v-5.013a18.787,18.787,0,0,1,37.574,0Z" transform="translate(-383.669 -276.788)" fill="#3f3d56"/>
      <path id="Path_293" data-name="Path 293" d="M463.847,691.24a18.846,18.846,0,0,1,18.787,18.8v5a18.787,18.787,0,0,1-37.574,0v-5A18.845,18.845,0,0,1,463.847,691.24Z" transform="translate(-383.669 -279.115)" fill="#3f3d56"/>
      <path id="Path_294" data-name="Path 294" d="M445.06,579.78v4.526a18.777,18.777,0,0,0,36.766,5.422Z" transform="translate(-383.669 -276.152)" opacity="0.1"/>
      <path id="Path_295" data-name="Path 295" d="M445.06,623.53v4.536a18.787,18.787,0,0,0,36.766,5.432Z" transform="translate(-383.669 -277.315)" opacity="0.1"/>
      <path id="Path_296" data-name="Path 296" d="M445.06,667.29v4.527a18.787,18.787,0,0,0,36.766,5.431Z" transform="translate(-383.669 -278.478)" opacity="0.1"/>
      <path id="Path_297" data-name="Path 297" d="M445.06,711v4.526a18.777,18.777,0,0,0,36.766,5.432Z" transform="translate(-383.669 -279.64)" opacity="0.1"/>
      <path id="Path_298" data-name="Path 298" d="M404.685,628.173l1.5,1.149a7.1,7.1,0,0,0,10.1-9.734,6.928,6.928,0,0,0-1.431-1.5l-1.5-1.129a7.1,7.1,0,0,0-8.673,11.243Z" transform="translate(-382.522 -277.101)" fill="#3f3d56"/>
      <path id="Path_299" data-name="Path 299" d="M426.448,627.02l1.5,1.158a7.1,7.1,0,1,1-8.673,11.243l-1.5-1.158a7.1,7.1,0,0,1,8.673-11.243Z" transform="translate(-382.87 -277.369)" fill="#3f3d56"/>
      <path id="Path_300" data-name="Path 300" d="M439.528,637.12l1.5,1.158a7.1,7.1,0,0,1-8.673,11.243l-1.5-1.159a7.1,7.1,0,1,1,8.673-11.243Z" transform="translate(-383.218 -277.637)" fill="#3f3d56"/>
      <path id="Path_301" data-name="Path 301" d="M452.617,647.219l1.5,1.158a7.1,7.1,0,0,1-8.673,11.243l-1.519-1.158a7.1,7.1,0,0,1,8.673-11.243Z" transform="translate(-383.565 -277.906)" fill="#3f3d56"/>
      <path id="Path_302" data-name="Path 302" d="M404.9,628.393l1.363,1.041a7.1,7.1,0,0,0,10.1-9.734Z" transform="translate(-382.602 -277.214)" opacity="0.1"/>
      <path id="Path_303" data-name="Path 303" d="M418,638.493l1.363,1.042a7.1,7.1,0,0,0,10.1-9.734Z" transform="translate(-382.95 -277.482)" opacity="0.1"/>
      <path id="Path_304" data-name="Path 304" d="M431.08,648.592l1.353,1.042a7.1,7.1,0,0,0,10.114-9.734Z" transform="translate(-383.297 -277.75)" opacity="0.1"/>
      <path id="Path_305" data-name="Path 305" d="M411,385.614a21.3,21.3,0,1,0,0,42.592,21.3,21.3,0,1,0,0,42.582,21.3,21.3,0,1,0,0,42.6,21.3,21.3,0,1,0,0,42.592l102.715,0a21.3,21.3,0,1,0,0-42.592,21.3,21.3,0,1,0,0-42.594,21.3,21.3,0,1,0,0-42.584,21.3,21.3,0,1,0,0-42.592,21.3,21.3,0,1,0,0-42.594,21.3,21.3,0,1,0,0-42.585h-4.692c-2.7-18.32-23.362-32.57-48.544-32.57s-45.848,14.251-48.544,32.57h-.973a21.3,21.3,0,1,0,0,42.592,21.3,21.3,0,1,0,0,42.594Z" transform="translate(-382.183 -267.86)" fill="#ff007c"/>
      <path id="Path_306" data-name="Path 306" d="M389.72,322.609a21.357,21.357,0,0,0,21.3,21.3H513.733L411.641,301.32h-.623A21.356,21.356,0,0,0,389.72,322.609Z" transform="translate(-382.198 -268.75)" opacity="0.1"/>
      <path id="Path_307" data-name="Path 307" d="M534.974,366.418a21.415,21.415,0,0,1-21.3,21.3H411l102.1-42.6h.623A21.415,21.415,0,0,1,534.974,366.418Z" transform="translate(-382.764 -269.914)" opacity="0.1"/>
      <path id="Path_308" data-name="Path 308" d="M534.974,453.878a21.357,21.357,0,0,1-21.3,21.289H411L513.1,432.58h.623A21.357,21.357,0,0,1,534.974,453.878Z" transform="translate(-382.764 -272.239)" opacity="0.1"/>
      <path id="Path_309" data-name="Path 309" d="M534.974,541.418a21.357,21.357,0,0,1-21.3,21.289H411L513.1,520.12h.623A21.356,21.356,0,0,1,534.974,541.418Z" transform="translate(-382.764 -274.566)" opacity="0.1"/>
      <path id="Path_310" data-name="Path 310" d="M389.72,410.119a21.357,21.357,0,0,0,21.3,21.3H513.733L411.641,388.83h-.623A21.357,21.357,0,0,0,389.72,410.119Z" transform="translate(-382.198 -271.076)" opacity="0.1"/>
      <path id="Path_311" data-name="Path 311" d="M389.72,497.628a21.415,21.415,0,0,0,21.3,21.3H513.733l-102.092-42.6h-.623A21.415,21.415,0,0,0,389.72,497.628Z" transform="translate(-382.198 -273.402)" opacity="0.1"/>
      <path id="Path_312" data-name="Path 312" d="M401.283,649.726l33.826-18.213a7.962,7.962,0,0,0-7.554-14.007,7.964,7.964,0,0,0-7.544-14.027l-1.548.837c-4.137-5.558-13.482-6.58-21.766-2.122s-12.567,12.82-10.211,19.332l-.3.166a7.964,7.964,0,1,0,7.544,14.027,7.966,7.966,0,1,0,7.554,14.027Z" transform="translate(-381.993 -276.674)" fill="#ff007c"/>
      <path id="Path_313" data-name="Path 313" d="M382.974,632.952a7.991,7.991,0,0,0,10.785,3.242L427.557,618l-41.166,4.079-.2.107A7.992,7.992,0,0,0,382.974,632.952Z" transform="translate(-381.994 -277.168)" opacity="0.1"/>
      <path id="Path_314" data-name="Path 314" d="M438.658,621.306a7.982,7.982,0,0,1-3.232,10.785L401.6,650.3l26.068-32.123.2-.117A7.991,7.991,0,0,1,438.658,621.306Z" transform="translate(-382.514 -277.145)" opacity="0.1"/>
    </g>
    <g id="Group_152" data-name="Group 152" transform="translate(183.95 456.337)" opacity="0.1">
      <path id="Path_315" data-name="Path 315" d="M295.846,713.677v1.431a5.393,5.393,0,0,1-10.776,0v-1.431a5.393,5.393,0,1,1,10.776,0Z" transform="translate(-267.455 -602.366)" fill="#3f3d56"/>
      <path id="Path_316" data-name="Path 316" d="M285.07,690.04V688.6a5.393,5.393,0,0,1,10.776,0v1.441a5.21,5.21,0,0,1-.234,1.557,5.383,5.383,0,0,1-10.542-1.557Z" transform="translate(-267.455 -601.712)" fill="#3f3d56"/>
      <path id="Path_317" data-name="Path 317" d="M295.846,701.136v1.431a5.393,5.393,0,0,1-10.776,0v-1.431a5.393,5.393,0,1,1,10.776,0Z" transform="translate(-267.455 -602.033)" fill="#3f3d56"/>
      <path id="Path_318" data-name="Path 318" d="M290.463,720.83a5.4,5.4,0,0,1,5.383,5.393v1.431a5.393,5.393,0,1,1-10.776,0v-1.431A5.4,5.4,0,0,1,290.463,720.83Z" transform="translate(-267.455 -602.706)" fill="#3f3d56"/>
      <path id="Path_319" data-name="Path 319" d="M285.07,688.89v1.294a5.383,5.383,0,0,0,10.542,1.558Z" transform="translate(-267.455 -601.857)" opacity="0.1"/>
      <path id="Path_320" data-name="Path 320" d="M285.07,701.43v1.295a5.383,5.383,0,0,0,10.542,1.557Z" transform="translate(-267.455 -602.19)" opacity="0.1"/>
      <path id="Path_321" data-name="Path 321" d="M285.07,714v1.295a5.383,5.383,0,0,0,10.542,1.558Z" transform="translate(-267.455 -602.524)" opacity="0.1"/>
      <path id="Path_322" data-name="Path 322" d="M285.07,726.51V727.8a5.383,5.383,0,0,0,10.542,1.557Z" transform="translate(-267.455 -602.857)" opacity="0.1"/>
      <path id="Path_323" data-name="Path 323" d="M273.5,702.75l.428.341a2.035,2.035,0,0,0,2.92-2.794,1.948,1.948,0,0,0-.409-.438l-.428-.331a2.037,2.037,0,1,0-2.492,3.222Z" transform="translate(-267.127 -602.128)" fill="#3f3d56"/>
      <path id="Path_324" data-name="Path 324" d="M279.74,702.428l.428.331a2.034,2.034,0,1,1-2.482,3.222l-.438-.331a2.037,2.037,0,0,1,2.492-3.222Z" transform="translate(-267.226 -602.205)" fill="#3f3d56"/>
      <path id="Path_325" data-name="Path 325" d="M283.492,705.32l.428.331a2.034,2.034,0,1,1-2.482,3.222l-.428-.331a2.034,2.034,0,0,1,2.482-3.222Z" transform="translate(-267.327 -602.283)" fill="#3f3d56"/>
      <path id="Path_326" data-name="Path 326" d="M287.242,708.219l.428.331a2.034,2.034,0,1,1-2.482,3.222l-.428-.331a2.034,2.034,0,0,1,2.482-3.222Z" transform="translate(-267.427 -602.36)" fill="#3f3d56"/>
      <path id="Path_327" data-name="Path 327" d="M273.56,702.822l.389.3a2.034,2.034,0,0,0,2.92-2.794Z" transform="translate(-267.149 -602.161)" opacity="0.1"/>
      <path id="Path_328" data-name="Path 328" d="M277.32,705.712l.389.3a2.034,2.034,0,0,0,2.92-2.794Z" transform="translate(-267.249 -602.238)" opacity="0.1"/>
      <path id="Path_329" data-name="Path 329" d="M281.07,708.612l.389.292a2.034,2.034,0,0,0,2.852-.36,2.063,2.063,0,0,0,0-2.433Z" transform="translate(-267.349 -602.315)" opacity="0.1"/>
      <path id="Path_330" data-name="Path 330" d="M275.313,633.229a6.1,6.1,0,1,0,0,12.206,6.113,6.113,0,0,0,0,12.216,6.1,6.1,0,1,0,0,12.207,6.1,6.1,0,0,0,0,12.207h29.446a6.1,6.1,0,0,0,0-12.207,6.1,6.1,0,0,0,0-12.207,6.113,6.113,0,0,0,0-12.216,6.1,6.1,0,0,0,0-12.207,6.1,6.1,0,1,0,0-12.206,6.1,6.1,0,0,0,0-12.207h-1.343c-.779-5.247-6.707-9.335-13.92-9.335s-13.141,4.088-13.91,9.335h-.272a6.1,6.1,0,0,0,0,12.207,6.1,6.1,0,1,0,0,12.207Z" transform="translate(-267.033 -599.48)" fill="#ff007c"/>
      <path id="Path_331" data-name="Path 331" d="M269.21,615.173a6.123,6.123,0,0,0,6.1,6.1h29.446L275.5,609.07h-.185a6.123,6.123,0,0,0-6.1,6.1Z" transform="translate(-267.033 -599.735)" opacity="0.1"/>
      <path id="Path_332" data-name="Path 332" d="M310.849,627.713a6.123,6.123,0,0,1-6.1,6.1H275.3l29.261-12.207h.185A6.123,6.123,0,0,1,310.849,627.713Z" transform="translate(-267.195 -600.068)" opacity="0.1"/>
      <path id="Path_333" data-name="Path 333" d="M310.849,652.833a6.133,6.133,0,0,1-6.1,6.1H275.3l29.261-12.216h.185a6.132,6.132,0,0,1,6.1,6.113Z" transform="translate(-267.195 -600.736)" opacity="0.1"/>
      <path id="Path_334" data-name="Path 334" d="M310.849,677.883a6.123,6.123,0,0,1-6.1,6.1H275.3l29.261-12.207h.185a6.123,6.123,0,0,1,6.1,6.1Z" transform="translate(-267.195 -601.402)" opacity="0.1"/>
      <path id="Path_335" data-name="Path 335" d="M269.21,640.253a6.123,6.123,0,0,0,6.1,6.1h29.446L275.5,634.15h-.185a6.123,6.123,0,0,0-6.1,6.1Z" transform="translate(-267.033 -600.402)" opacity="0.1"/>
      <path id="Path_336" data-name="Path 336" d="M269.21,665.343a6.123,6.123,0,0,0,6.1,6.1h29.446L275.5,659.24h-.185A6.123,6.123,0,0,0,269.21,665.343Z" transform="translate(-267.033 -601.069)" opacity="0.1"/>
      <path id="Path_337" data-name="Path 337" d="M272.56,708.936l9.734-5.227a5.081,5.081,0,0,1-1.236-7.106,2.278,2.278,0,0,0-3.1-.925l-.438.234c-1.188-1.587-3.894-1.888-6.24-.6s-3.6,3.67-2.92,5.539l-.088.049A5.081,5.081,0,0,1,269.514,708,2.287,2.287,0,0,0,272.56,708.936Z" transform="translate(-267.006 -602.006)" fill="#ff007c"/>
      <path id="Path_338" data-name="Path 338" d="M267.272,704.124a2.287,2.287,0,0,0,3.1.974l9.734-5.218-11.846,1.09H268.2a2.287,2.287,0,0,0-.925,3.154Z" transform="translate(-266.974 -602.149)" opacity="0.1"/>
      <path id="Path_339" data-name="Path 339" d="M283.239,700.787a2.3,2.3,0,0,1-.925,3.1L272.58,709.1l7.466-9.209h.058a2.3,2.3,0,0,1,3.134.9Z" transform="translate(-267.123 -602.142)" opacity="0.1"/>
    </g>
    <g id="Group_153" data-name="Group 153" transform="translate(669.882 37.029)" opacity="0.1">
      <path id="Path_340" data-name="Path 340" d="M834.26,654.374v6.1a22.9,22.9,0,1,0,45.809,0v-6.1a22.9,22.9,0,1,0-45.809,0Z" transform="translate(-767.986 -181.022)" fill="#3f3d56"/>
      <path id="Path_341" data-name="Path 341" d="M880.069,553.808v-6.1a22.9,22.9,0,0,0-45.809,0v6.1a22.526,22.526,0,0,0,.973,6.619,22.895,22.895,0,0,0,44.777-6.619Z" transform="translate(-767.986 -178.186)" fill="#3f3d56"/>
      <path id="Path_342" data-name="Path 342" d="M834.26,601.035v6.113a22.9,22.9,0,1,0,45.809,0v-6.113a22.9,22.9,0,1,0-45.809,0Z" transform="translate(-767.986 -179.604)" fill="#3f3d56"/>
      <path id="Path_343" data-name="Path 343" d="M857.164,684.8a22.972,22.972,0,0,0-22.9,22.9v6.1a22.9,22.9,0,1,0,45.809,0v-6.1A22.963,22.963,0,0,0,857.164,684.8Z" transform="translate(-767.986 -182.44)" fill="#3f3d56"/>
      <path id="Path_344" data-name="Path 344" d="M880.1,548.93v5.519a22.895,22.895,0,0,1-44.777,6.619Z" transform="translate(-768.015 -178.828)" opacity="0.1"/>
      <path id="Path_345" data-name="Path 345" d="M880.1,602.27v5.519a22.895,22.895,0,0,1-44.777,6.619Z" transform="translate(-768.015 -180.246)" opacity="0.1"/>
      <path id="Path_346" data-name="Path 346" d="M880.1,655.6v5.519a22.895,22.895,0,0,1-44.777,6.619Z" transform="translate(-768.015 -181.663)" opacity="0.1"/>
      <path id="Path_347" data-name="Path 347" d="M880.1,708.93v5.519a22.895,22.895,0,0,1-44.777,6.619Z" transform="translate(-768.015 -183.081)" opacity="0.1"/>
      <path id="Path_348" data-name="Path 348" d="M930.02,607.916l-1.83,1.412a8.654,8.654,0,0,1-12.324-11.885,8.375,8.375,0,0,1,1.752-1.821l1.83-1.411a8.654,8.654,0,0,1,10.571,13.706Z" transform="translate(-770.113 -179.983)" fill="#3f3d56"/>
      <path id="Path_349" data-name="Path 349" d="M903.483,606.52l-1.82,1.391a8.654,8.654,0,1,0,10.571,13.7l1.821-1.4A8.655,8.655,0,0,0,903.483,606.5Z" transform="translate(-769.684 -180.31)" fill="#3f3d56"/>
      <path id="Path_350" data-name="Path 350" d="M887.533,618.831l-1.83,1.411a8.654,8.654,0,1,0,10.571,13.7l1.83-1.4a8.654,8.654,0,1,0-10.571-13.706Z" transform="translate(-769.259 -180.638)" fill="#3f3d56"/>
      <path id="Path_351" data-name="Path 351" d="M871.578,631.137l-1.82,1.4a8.654,8.654,0,0,0,10.571,13.706l1.82-1.412a8.654,8.654,0,1,0-10.571-13.7Z" transform="translate(-768.84 -180.961)" fill="#3f3d56"/>
      <path id="Path_352" data-name="Path 352" d="M929.844,608.19l-1.655,1.275a8.654,8.654,0,0,1-12.323-11.885Z" transform="translate(-770.113 -180.121)" opacity="0.1"/>
      <path id="Path_353" data-name="Path 353" d="M913.887,620.5l-1.645,1.265a8.654,8.654,0,0,1-12.285-11.875Z" transform="translate(-769.691 -180.448)" opacity="0.1"/>
      <path id="Path_354" data-name="Path 354" d="M897.935,632.8l-1.655,1.275A8.654,8.654,0,0,1,883.956,622.2Z" transform="translate(-769.265 -180.775)" opacity="0.1"/>
      <path id="Path_355" data-name="Path 355" d="M917.965,312.25a25.961,25.961,0,0,1,0,51.922,25.959,25.959,0,1,1,0,51.917,25.961,25.961,0,0,1,0,51.907,25.961,25.961,0,0,1,0,51.922H792.754a25.961,25.961,0,0,1,0-51.922,25.959,25.959,0,1,1,0-51.917,25.961,25.961,0,1,1,0-51.907,25.961,25.961,0,0,1,0-51.922,25.959,25.959,0,1,1,0-51.917,25.961,25.961,0,1,1,0-51.907h5.724c3.29-22.33,28.521-39.706,59.174-39.706s55.884,17.375,59.174,39.706h1.139a25.959,25.959,0,1,1,0,51.917,25.961,25.961,0,0,1,0,51.907Z" transform="translate(-766.176 -168.72)" fill="#ff007c"/>
      <path id="Path_356" data-name="Path 356" d="M944.642,235.471a26.029,26.029,0,0,1-25.951,25.951H793.48L917.922,209.51h.769A26.029,26.029,0,0,1,944.642,235.471Z" transform="translate(-766.902 -169.805)" opacity="0.1"/>
      <path id="Path_357" data-name="Path 357" d="M767.6,288.8a26.029,26.029,0,0,0,25.961,25.951h125.2L794.32,262.84h-.759A26.039,26.039,0,0,0,767.6,288.8Z" transform="translate(-766.214 -171.222)" opacity="0.1"/>
      <path id="Path_358" data-name="Path 358" d="M767.6,395.461a26.038,26.038,0,0,0,25.961,25.961h125.2L794.32,369.51h-.759A26.029,26.029,0,0,0,767.6,395.461Z" transform="translate(-766.214 -174.058)" opacity="0.1"/>
      <path id="Path_359" data-name="Path 359" d="M767.6,502.131a26.039,26.039,0,0,0,25.961,25.961h125.2L794.32,476.17h-.759A26.039,26.039,0,0,0,767.6,502.131Z" transform="translate(-766.214 -176.893)" opacity="0.1"/>
      <path id="Path_360" data-name="Path 360" d="M944.642,342.131a26.029,26.029,0,0,1-25.951,25.961H793.48L917.922,316.17h.769A26.029,26.029,0,0,1,944.642,342.131Z" transform="translate(-766.902 -172.64)" opacity="0.1"/>
      <path id="Path_361" data-name="Path 361" d="M944.642,448.8a26.029,26.029,0,0,1-25.951,25.951H793.48L917.922,422.84h.769A26.029,26.029,0,0,1,944.642,448.8Z" transform="translate(-766.902 -175.476)" opacity="0.1"/>
      <path id="Path_362" data-name="Path 362" d="M932.751,634.183l-41.234-22.194a9.734,9.734,0,0,1,9.209-17.093,9.734,9.734,0,1,1,9.2-17.093l1.888.973c5.042-6.814,16.421-8.021,26.515-2.589s15.331,15.633,12.45,23.567l.38.2a9.734,9.734,0,1,1-9.209,17.093,9.734,9.734,0,1,1-9.2,17.132Z" transform="translate(-769.389 -179.462)" fill="#ff007c"/>
      <path id="Path_363" data-name="Path 363" d="M955.515,613.75a9.734,9.734,0,0,1-13.151,3.894L901.14,595.45l50.18,4.965.253.136a9.734,9.734,0,0,1,3.943,13.2Z" transform="translate(-769.764 -180.064)" opacity="0.1"/>
      <path id="Path_364" data-name="Path 364" d="M887.859,599.551A9.734,9.734,0,0,0,891.8,612.7L933.035,634.9l-31.782-39.151-.243-.136A9.734,9.734,0,0,0,887.859,599.551Z" transform="translate(-769.38 -180.038)" opacity="0.1"/>
    </g>
    <g transform="matrix(1, 0, 0, 1, -43.5, 0)" filter="url(#Ellipse_204)">
      <ellipse id="Ellipse_204-2" data-name="Ellipse 204" cx="508.123" cy="22.389" rx="508.123" ry="22.389" transform="translate(43.5 576.89)" fill="#3f3d56"/>
    </g>
    <ellipse id="Ellipse_205" data-name="Ellipse 205" cx="109.996" cy="14.669" rx="109.996" ry="14.669" transform="translate(378.659 583.631)" opacity="0.1"/>
    <path id="Path_365" data-name="Path 365" d="M586.42,732.27a22.388,22.388,0,0,1-26.535-24.413c2.55-22.544,10.484-58.863,32.181-113.384,25.153-63.214,16.081-78.486-10.873-123.818-8.7-14.65-18.573-31.247-29.2-52.565-27.412-54.764-17-96.972-3.466-122.66,14.387-27.343,34.965-41.662,37.262-43.21l21.24,35.14-1.947,1.947c-.049,0,.973,0,2.453,2.7a84.893,84.893,0,0,0-20.121,25.766c-11.778,23.586-10.221,50.618,4.624,80.278,9.938,19.877,19.361,35.734,27.674,49.722,14.932,25.114,26.721,44.953,30.624,70,4.04,25.922-.974,53.81-16.636,93.253-20.646,51.873-27.256,84.337-29.271,101.761a22.437,22.437,0,0,1-17.979,19.468Z" transform="translate(-90.143 -133.911)" fill="#3f3d56"/>
    <path id="Path_366" data-name="Path 366" d="M409,90.09,499.09,0l90.966,90.09H528.234v68.889H470.822V90.528Z" transform="translate(-10.873)" fill="#ff007c"/>
    <ellipse id="Ellipse_206" data-name="Ellipse 206" cx="57.432" cy="7.661" rx="57.432" ry="7.661" transform="translate(627.853 582.599)" opacity="0.1"/>
    <path id="Path_367" data-name="Path 367" d="M785.354,730.245A11.681,11.681,0,0,1,771.5,717.5c1.324-11.768,5.471-30.731,16.8-59.193,13.132-33.008,8.391-40.981-5.675-64.654-4.545-7.641-9.734-16.314-15.273-27.45-14.29-28.589-8.858-50.617-1.791-64.031a65.1,65.1,0,0,1,19.468-22.564l11.087,18.349-1.032.973s.526,0,1.285,1.412A44.265,44.265,0,0,0,785.86,513.8c-6.142,12.314-5.325,26.418,2.424,41.915,5.188,10.376,10.1,18.66,14.446,25.961,7.787,13.112,13.949,23.469,15.993,36.552,2.1,13.531-.5,28.093-8.692,48.671-10.776,27.08-14.232,44.027-15.283,53.129a11.681,11.681,0,0,1-9.384,10.172Z" transform="translate(-96.088 -139.956)" fill="#3f3d56"/>
    <path id="Path_368" data-name="Path 368" d="M655.44,332.5l47.036-47.035,47.5,47.035H717.7v35.968H687.718V332.729Z" transform="translate(-17.424 -7.589)" fill="#ff007c"/>
    <ellipse id="Ellipse_207" data-name="Ellipse 207" cx="57.432" cy="7.661" rx="57.432" ry="7.661" transform="translate(234.593 582.599)" opacity="0.1"/>
    <path id="Path_369" data-name="Path 369" d="M372.98,730.245A11.681,11.681,0,0,0,386.832,717.5c-1.324-11.768-5.471-30.731-16.8-59.193-13.131-33.008-8.391-40.981,5.675-64.654,4.546-7.641,9.734-16.315,15.273-27.451,14.29-28.589,8.858-50.617,1.791-64.031A65.1,65.1,0,0,0,373.3,479.61l-11.087,18.349,1.032.973s-.526,0-1.285,1.412A44.271,44.271,0,0,1,372.474,513.8c6.142,12.314,5.324,26.419-2.424,41.915-5.188,10.377-10.1,18.661-14.445,25.961-7.787,13.112-13.949,23.469-15.993,36.552-2.1,13.53.5,28.093,8.693,48.671,10.776,27.081,14.231,44.028,15.283,53.129A11.681,11.681,0,0,0,372.97,730.2Z" transform="translate(-84.936 -139.956)" fill="#3f3d56"/>
    <path id="Path_370" data-name="Path 370" d="M345.978,332.5,298.943,285.46,251.44,332.5h32.278v35.968H313.7V332.729Z" transform="translate(-6.684 -7.589)" fill="#ff007c"/>
    <ellipse id="Ellipse_208" data-name="Ellipse 208" cx="20.442" cy="2.434" rx="20.442" ry="2.434" transform="translate(467.684 285.97) rotate(-16.49)" opacity="0.1"/>
    <ellipse id="Ellipse_209" data-name="Ellipse 209" cx="20.442" cy="2.434" rx="20.442" ry="2.434" transform="translate(476.441 305.441) rotate(-16.49)" opacity="0.1"/>
    <ellipse id="Ellipse_210" data-name="Ellipse 210" cx="20.442" cy="2.434" rx="20.442" ry="2.434" transform="translate(456.462 369.098) rotate(-16.49)" opacity="0.1"/>
    <ellipse id="Ellipse_211" data-name="Ellipse 211" cx="20.442" cy="2.434" rx="20.442" ry="2.434" transform="translate(493.968 334.64) rotate(-16.49)" opacity="0.1"/>
    <path id="Path_371" data-name="Path 371" d="M957.828,737.425H916.478a8.576,8.576,0,0,1,0-17.152,8.576,8.576,0,1,1,0-17.142h1.889c1.08-7.378,9.4-13.122,19.527-13.131s18.494,5.723,19.556,13.092h.379a8.576,8.576,0,1,1,0,17.142,8.576,8.576,0,0,1,0,17.152Z" transform="translate(-100.055 -145.549)" fill="#ff007c"/>
    <path id="Path_372" data-name="Path 372" d="M966.637,712.055a8.585,8.585,0,0,1-8.567,8.576H916.73l41.078-17.181h.253A8.6,8.6,0,0,1,966.637,712.055Z" transform="translate(-100.297 -145.906)" opacity="0.1"/>
    <path id="Path_373" data-name="Path 373" d="M908.17,729.767a8.6,8.6,0,0,0,8.576,8.566H958.1l-41.107-17.1h-.224A8.6,8.6,0,0,0,908.17,729.767Z" transform="translate(-100.069 -146.379)" opacity="0.1"/>
    <path id="Path_374" data-name="Path 374" d="M700.226,727.465H676.757a4.867,4.867,0,0,1,0-9.734,4.867,4.867,0,0,1,0-9.734h1.08c.6-4.186,5.334-7.447,11.078-7.447s10.474,3.242,11.1,7.427h.214a4.867,4.867,0,0,1,0,9.734,4.867,4.867,0,1,1,0,9.734Z" transform="translate(-93.788 -145.829)" fill="#ff007c"/>
    <path id="Path_375" data-name="Path 375" d="M705.226,713.067a4.867,4.867,0,0,1-4.867,4.867H676.89l23.362-9.734h.107A4.867,4.867,0,0,1,705.226,713.067Z" transform="translate(-93.921 -146.033)" opacity="0.1"/>
    <path id="Path_376" data-name="Path 376" d="M672.05,723.1a4.868,4.868,0,0,0,4.867,4.867h23.459l-23.362-9.735h-.146A4.867,4.867,0,0,0,672.05,723.1Z" transform="translate(-93.792 -146.299)" opacity="0.1"/>
    <path id="Path_377" data-name="Path 377" d="M247.8,755.017H198.16a10.289,10.289,0,1,1,0-20.568,10.289,10.289,0,1,1,0-20.568h2.258c1.295-8.848,11.292-15.74,23.43-15.75s22.145,6.862,23.459,15.7h.448a10.289,10.289,0,0,1,0,20.568,10.289,10.289,0,0,1,0,20.568Z" transform="translate(-80.912 -145.765)" fill="#ff007c"/>
    <path id="Path_378" data-name="Path 378" d="M258.364,724.588a10.309,10.309,0,0,1-10.269,10.289H198.45l49.274-20.617h.3A10.328,10.328,0,0,1,258.364,724.588Z" transform="translate(-81.202 -146.194)" opacity="0.1"/>
    <path id="Path_379" data-name="Path 379" d="M188.22,745.79a10.318,10.318,0,0,0,10.3,10.27h49.644L198.84,735.54h-.3A10.328,10.328,0,0,0,188.22,745.79Z" transform="translate(-80.93 -146.76)" opacity="0.1"/>
    <path id="Path_380" data-name="Path 380" d="M352.386,283.023a19.781,19.781,0,0,0-11.477,1.226,16.81,16.81,0,0,1-13.725,0,19.274,19.274,0,0,0-16.139.311,10.016,10.016,0,0,1-4.643,1.168c-6.541,0-11.983-6.59-13.112-15.292a12.6,12.6,0,0,0,3.271-3.524c3.835-6.181,9.734-10.143,16.441-10.143s12.547,3.894,16.383,10.036a12.655,12.655,0,0,0,10.863,5.967h.175C345.631,272.763,350.137,276.939,352.386,283.023Z" transform="translate(-83.723 -134.032)" fill="#ff007c" opacity="0.1"/>
    <path id="Path_381" data-name="Path 381" d="M372.264,255.075l-10.571,6.707,6.415-11.681a10.406,10.406,0,0,0-6.4-2.288h-.165a11.692,11.692,0,0,1-2.19-.156l-3.592,2.268,1.538-2.794a12.781,12.781,0,0,1-6.269-4.76L344.6,246.45l4.049-7.369c-3.748-4.5-8.81-7.262-14.368-7.262-6.668,0-12.654,3.962-16.451,10.143a12.313,12.313,0,0,1-10.873,5.84h-.321c-7.359,0-13.336,8.352-13.336,18.651s5.977,18.651,13.336,18.651a9.9,9.9,0,0,0,4.643-1.168,19.273,19.273,0,0,1,16.139-.311,17.037,17.037,0,0,0,6.9,1.479,16.83,16.83,0,0,0,6.814-1.45,19.264,19.264,0,0,1,15.993.311,9.969,9.969,0,0,0,4.594,1.139c7.369,0,13.336-8.352,13.336-18.651A23.7,23.7,0,0,0,372.264,255.075Z" transform="translate(-83.724 -133.369)" fill="#ff007c" opacity="0.1"/>
    <path id="Path_382" data-name="Path 382" d="M210.62,393.023a19.779,19.779,0,0,1,11.428,1.227,16.782,16.782,0,0,0,13.716,0,19.273,19.273,0,0,1,16.139.311,10.044,10.044,0,0,0,4.643,1.168c6.542,0,11.992-6.59,13.122-15.292a12.45,12.45,0,0,1-3.271-3.524c-3.835-6.181-9.783-10.143-16.451-10.143s-12.537,3.894-16.373,10.036a12.655,12.655,0,0,1-10.9,5.957h-.166C217.327,382.763,212.81,386.939,210.62,393.023Z" transform="translate(-81.526 -136.956)" fill="#ff007c" opacity="0.1"/>
    <path id="Path_383" data-name="Path 383" d="M190.064,365.075l10.571,6.707L194.211,360.1a10.424,10.424,0,0,1,6.4-2.288h.175a11.69,11.69,0,0,0,2.19-.156l3.582,2.268-1.538-2.794a12.8,12.8,0,0,0,6.279-4.76l6.415,4.069-4.059-7.369c3.757-4.5,8.809-7.262,14.377-7.262,6.668,0,12.606,3.962,16.451,10.143a12.3,12.3,0,0,0,10.873,5.84h.35c7.369,0,13.336,8.352,13.336,18.651s-5.967,18.651-13.336,18.651a9.959,9.959,0,0,1-4.643-1.168,19.273,19.273,0,0,0-16.139-.311,16.986,16.986,0,0,1-6.892,1.479,16.763,16.763,0,0,1-6.814-1.45,19.283,19.283,0,0,0-16,.311,9.939,9.939,0,0,1-4.595,1.139c-7.359,0-13.336-8.352-13.336-18.651A23.7,23.7,0,0,1,190.064,365.075Z" transform="translate(-80.905 -136.293)" fill="#ff007c" opacity="0.1"/>
    <path id="Path_384" data-name="Path 384" d="M629,401.729a5.085,5.085,0,0,1,1.771.555,4.193,4.193,0,0,1,1.548,2.073,18.306,18.306,0,0,1,1.032,6.493,13.924,13.924,0,0,1-.672,5.266,3.293,3.293,0,0,1-.876,1.373,3.039,3.039,0,0,1-1.207.584,3.222,3.222,0,0,1-2.833-.35,4.5,4.5,0,0,1-1.256-2.92,6.882,6.882,0,0,0-1.684-4.069c-.808-.75-1.947-1.129-2.541-2.054-.7-1.11-.331-2.55.117-3.777.379-1.071.973-3.232,2.064-3.777S627.837,401.515,629,401.729Z" transform="translate(-92.459 -137.865)" fill="#fbbebe"/>
    <path id="Path_385" data-name="Path 385" d="M586.665,407.072a8.314,8.314,0,0,0,1.742,3.222c.5.574,1.109,1.265.847,1.947a1.657,1.657,0,0,1-.467.633c-3.66,3.582-8.761,5.325-13.871,5.957a.518.518,0,0,1-.243,0c-.146-.068-.185-.253-.2-.419a5.166,5.166,0,0,1,0-1.6,4.749,4.749,0,0,1,2.4-2.8,7.632,7.632,0,0,0,2.823-2.463c.74-1.392.429-3.2,1.3-4.507a4.72,4.72,0,0,1,3.309-1.7c.428-.068,1.363-.555,1.733-.331S586.519,406.634,586.665,407.072Z" transform="translate(-91.196 -137.971)" fill="#fbbebe"/>
    <path id="Path_386" data-name="Path 386" d="M629.517,401.606a.516.516,0,0,1,.447-.506,1.528,1.528,0,0,1,.721.1,10.724,10.724,0,0,0,1.743.321,12.656,12.656,0,0,1,2.1.243,2.374,2.374,0,0,1,1.625,1.246,3.13,3.13,0,0,1,.185,1.168,18.478,18.478,0,0,1-.545,4.556.323.323,0,0,1-.185.282.685.685,0,0,1-.282,0,.369.369,0,0,0-.165.195,10.049,10.049,0,0,0-.623,3.047c-.175,1.528-.38,3.057-.633,4.575a5.1,5.1,0,0,1-.973,2.5,4.137,4.137,0,0,1-2.628,1.207,18.494,18.494,0,0,1-6.191-.565,1.8,1.8,0,0,1-1.042-.467,1.2,1.2,0,0,1-.253-.827c0-.973.973-1.743,1.83-2.307l1.265-.769a.625.625,0,0,0,.2-.185.706.706,0,0,0,.058-.38l-.078-1.5a4.283,4.283,0,0,1,3.708,2.356c.166.321.321.7.652.828a.867.867,0,0,0,1.022-.623,2.615,2.615,0,0,0,0-1.314c-.681-3.67-.516-7.446-.973-11.155a2.473,2.473,0,0,0-.38-1.168C629.935,402.19,629.566,401.976,629.517,401.606Z" transform="translate(-92.483 -137.869)" fill="#f86d70"/>
    <path id="Path_387" data-name="Path 387" d="M577.019,416.084c-.175.282-.448.5-.6.8a.672.672,0,0,0,.127.886.867.867,0,0,0,.545.058,18.329,18.329,0,0,0,9.88-4.468,6.812,6.812,0,0,0,1.207-1.333c.321-.487.594-1.08,1.139-1.285a19.768,19.768,0,0,1,.516,4.342,3.087,3.087,0,0,1-.973,2.618,3.15,3.15,0,0,1-.974.419l-1.723.487a1.74,1.74,0,0,1-.973.088,4.341,4.341,0,0,0-.594-.214,1.4,1.4,0,0,0-.662.078l-1.479.438a8.455,8.455,0,0,0-1.47.506c-.428.2-.818.467-1.227.691a15.259,15.259,0,0,1-2.151.866l-2.609.905a9.184,9.184,0,0,1-2.22.574,9.511,9.511,0,0,0-1.577.088c-.525.088-.769.2-1.178.243a3.164,3.164,0,0,1-1.849-.545,1.828,1.828,0,0,1-.535-.487c-.37-.574,0-1.343.321-1.947a7.531,7.531,0,0,1,2.638-2.726c.457-.253.973-.438,1.412-.662,1.333-.643,2.336-1.723,3.592-2.463S577.574,415.169,577.019,416.084Z" transform="translate(-91.012 -138.125)" fill="#f86d70"/>
    <path id="Path_388" data-name="Path 388" d="M614.92,307.971a10.883,10.883,0,0,0,4.614,1.8,19.526,19.526,0,0,0,2.608.136A67.586,67.586,0,0,0,633.006,309a13.449,13.449,0,0,1-3.417-5.315,8.9,8.9,0,0,1-.166-3.329,26.123,26.123,0,0,1,.973-4.2,27.9,27.9,0,0,1-4.594-.117c-.866-.088-3-.876-3.757-.273s-.175,2.521-.156,3.436a.361.361,0,0,1,0,.1,10.948,10.948,0,0,1-.876,4.01,7.544,7.544,0,0,1-6.093,4.653Z" transform="translate(-92.274 -135.063)" fill="#fbbebe"/>
    <path id="Path_389" data-name="Path 389" d="M622.123,299.21a9.171,9.171,0,0,0,7.486,1.149,26.1,26.1,0,0,1,.973-4.2,27.9,27.9,0,0,1-4.594-.117c-.866-.088-3-.876-3.757-.273S622.1,298.3,622.123,299.21Z" transform="translate(-92.458 -135.063)" opacity="0.1"/>
    <circle id="Ellipse_212" data-name="Ellipse 212" cx="9.15" cy="9.15" r="9.15" transform="translate(525.518 146.918)" fill="#fbbebe"/>
    <path id="Path_390" data-name="Path 390" d="M587.4,337.639a4.273,4.273,0,0,0,2.064,3.67,7.862,7.862,0,0,0,2.239.788,44.012,44.012,0,0,0,12.771,1.577,7.123,7.123,0,0,0,2.706-.564,2.92,2.92,0,0,0,1.674-2.093,1.188,1.188,0,0,1,.759-1.226,2.589,2.589,0,0,0,.973-2.589c.526.233,1.071-.292,1.314-.808s.438-1.149.973-1.363a7.305,7.305,0,0,1,1.139-.166c.6-.156.973-.74,1.4-1.188a10.538,10.538,0,0,1,3.232-1.947c3.368-1.7,6.1-4.39,8.761-7.038a29.459,29.459,0,0,0,3.777-4.234c.3-.448.584-.905.837-1.372a38.625,38.625,0,0,0,2.113-4.818,5.61,5.61,0,0,0,.535-2.765,2.274,2.274,0,0,0,0-.253,5.272,5.272,0,0,0-.828-1.674,7.007,7.007,0,0,0-3.748-3.086c-1.577-.418-3.193.088-4.867.428a11.884,11.884,0,0,1-1.635.253,15.206,15.206,0,0,1-5.091-.8l-1.82-.5c-.905-.253-1.363-1.353-2.278-1.548a3.318,3.318,0,0,0-1.236.068,16.8,16.8,0,0,0-5.392,1.762,8.2,8.2,0,0,0-1.042.711,6.659,6.659,0,0,0-2.434,3.592c-.38,1.587,0,3.271-.409,4.867a10.764,10.764,0,0,1-1.859,3.543l-4.458,6.405a38.954,38.954,0,0,1-3.291,4.273C591.878,332.12,587.468,334.1,587.4,337.639Z" transform="translate(-91.542 -135.296)" fill="#f86d70"/>
    <path id="Path_391" data-name="Path 391" d="M599.42,275.6a7.536,7.536,0,0,0-.808-2.541,5.758,5.758,0,0,0-1.187-1.246,7.785,7.785,0,0,0-2.531-1.577,3.155,3.155,0,0,0-2.92.331,3.836,3.836,0,0,0-1.265,2.638,6.514,6.514,0,0,0,.681,4,16.7,16.7,0,0,0,3.242,3.339,12.663,12.663,0,0,1,2.122,2.638,7.367,7.367,0,0,0,.974,1.411,1.819,1.819,0,0,0,1.528.6,2.638,2.638,0,0,0,1.246-.73c.458-.4,1.7-1.129,1.742-1.772s-.974-1.694-1.178-2.18A24.628,24.628,0,0,1,599.42,275.6Z" transform="translate(-91.628 -134.384)" fill="#fbbebe"/>
    <path id="Path_392" data-name="Path 392" d="M566.591,383.319c1.149,2.122,2.414,4.186,3.436,6.376.594,1.275,1.119,2.589,1.781,3.826s1.616,2.618,2.375,3.952a45.937,45.937,0,0,1,3.952,10.941,22.021,22.021,0,0,0,7.787-2.735c.155-.1.312-.195.457-.3a5.6,5.6,0,0,0,1.577-1.733,36.724,36.724,0,0,0-3.689-9.948c-.594-.973-1.285-1.947-1.947-2.92-1.8-2.823-2.171-6.386-4.215-9.033a1.548,1.548,0,0,1,0-1.84c.234-.3.613-.594.535-.974s-.341-.535-.224-.788.175-.195.282-.282c.341-.321.3-.876.331-1.343a6.648,6.648,0,0,1,1.489-3.232,2.083,2.083,0,0,1,.545-.584c.184-.117.408-.165.593-.282.652-.409.6-1.363.915-2.073.419-.973,1.45-1.4,2.122-2.161.867-.973,1.081-2.307,1.947-3.144a2.524,2.524,0,0,1,.3-.243,14.9,14.9,0,0,0-.536,4.409c-.087,5.091,1.188,10.367.584,15.429-.467,4.02,2.005,8.031,5.509,10.036a26.341,26.341,0,0,0,4.292,1.8c2.2.779,4.39,1.587,6.542,2.482q2.278.973,4.5,2.035a55.5,55.5,0,0,1,5.315,2.92,20.442,20.442,0,0,1,5.734,4.711,5.121,5.121,0,0,0,3.7-2.034,14.205,14.205,0,0,0,2.034-3.835,10.566,10.566,0,0,0,.973-3.611.691.691,0,0,0-.4-.652l-10.036-5.325-1.878-.973c-4.108-2.181-8.371-4.2-12.479-6.376-.272.078-.506-.234-.584-.506s-.136-.613-.4-.74-.3-.058-.4-.166a.429.429,0,0,1-.068-.331c.136-1.947,1.567-3.816,1.275-5.792a6.938,6.938,0,0,1-.36-2.492,11.674,11.674,0,0,1,.759-1.577c.5-1.207,0-2.667.545-3.894a8.755,8.755,0,0,0,.72-2.463,16.8,16.8,0,0,1,1.538-4.867,8.762,8.762,0,0,1,1.411-2.142c.3-.321.642-.613.973-.973a7.786,7.786,0,0,0,1.441-3.738,17.869,17.869,0,0,0,.2-7.32,10.78,10.78,0,0,1-.467-2.463c0-1.11.5-2.4-.273-3.2a2.462,2.462,0,0,0-1.119-.574,35.494,35.494,0,0,0-5.442-.973l-8.391-1.09a7.787,7.787,0,0,1-2.793-.72,5.577,5.577,0,0,1-2.346-3.008c-1.48,1.071-2.025,3.076-3.2,4.458a21.877,21.877,0,0,1-1.947,1.85,22.42,22.42,0,0,0-2.1,2.589,45.88,45.88,0,0,0-4.75,7.515c-.652,1.4-1.158,2.862-1.684,4.312-2.044,5.714-5.383,11.136-6.814,17.044-.341,1.45-1.227,2.755-1.363,4.225A8.187,8.187,0,0,0,566.591,383.319Z" transform="translate(-90.951 -136.159)" fill="#434175"/>
    <path id="Path_393" data-name="Path 393" d="M611.706,335.79a2.5,2.5,0,0,1,.3,1.236c-.185-.973-1.46-1.441-1.538-2.355,0-.419,0-.4.3-.175S611.336,335.43,611.706,335.79Z" transform="translate(-92.155 -136.094)" opacity="0.1"/>
    <path id="Path_394" data-name="Path 394" d="M607.737,338.7a1.943,1.943,0,0,1,.574.857,2.162,2.162,0,0,1,.117,1.5c-.185-.088-.244-.321-.3-.516a3.628,3.628,0,0,0-.4-.886c-.146-.243-.847-.808-.837-1.071S607.552,338.567,607.737,338.7Z" transform="translate(-92.06 -136.204)" opacity="0.1"/>
    <path id="Path_395" data-name="Path 395" d="M607.3,306.84a9.737,9.737,0,0,0,1.947,1.285c1.811.915,3.816,1.4,5.646,2.288a26.244,26.244,0,0,1,2.618,1.528l5.422,3.436a6.466,6.466,0,0,1,1.2.905c.642.7.642,1.947,1.236,2.667A3.612,3.612,0,0,0,628,320.166a8.67,8.67,0,0,0,2.921-.5,14.988,14.988,0,0,0,1.674-.613,7.965,7.965,0,0,0,1.606-.915,4.613,4.613,0,0,0,1.947-3,6.016,6.016,0,0,0-.321-2.443,9.209,9.209,0,0,0-.584-1.48,4.81,4.81,0,0,0-.458-.779c-1.246-1.762-3.436-2.589-5.558-3.008-1.119-.214-2.258-.35-3.378-.545a11.872,11.872,0,0,1-1.635.253,15.216,15.216,0,0,1-5.091-.8l-1.82-.5c-.905-.253-1.363-1.353-2.278-1.548a3.321,3.321,0,0,0-1.236.068,16.8,16.8,0,0,0-5.393,1.762A8.182,8.182,0,0,0,607.3,306.84Z" transform="translate(-92.071 -135.295)" opacity="0.1"/>
    <path id="Path_396" data-name="Path 396" d="M602.581,282c.233,2.209,2.093,3.835,3.232,5.743.555.974.973,1.947,1.441,2.92a29.592,29.592,0,0,0,1.947,3.018l2.035,2.92a30.526,30.526,0,0,0,3.894,4.935c2.667.458,4.867,2.434,7.417,3.388a37.591,37.591,0,0,0,6.347,1.285c2.122.419,4.312,1.246,5.558,3.008a8.273,8.273,0,0,1,1.041,2.268,5.97,5.97,0,0,1,.321,2.443,4.615,4.615,0,0,1-1.947,2.988,10.121,10.121,0,0,1-3.28,1.528,8.432,8.432,0,0,1-2.92.5,3.572,3.572,0,0,1-2.638-1.217c-.594-.74-.584-1.947-1.236-2.658a5.956,5.956,0,0,0-1.2-.905l-5.422-3.436a26.149,26.149,0,0,0-2.619-1.528c-1.83-.9-3.835-1.372-5.646-2.3s-3.5-2.424-3.894-4.429c-1.1-6.142-5.354-11.321-8.985-16.392.117,0,.078-.292.127-.409a5.256,5.256,0,0,1,2.657-2.687,15.568,15.568,0,0,1,3.767-.983Z" transform="translate(-91.771 -134.703)" fill="#f86d70"/>
    <path id="Path_397" data-name="Path 397" d="M622.449,281.884a3.28,3.28,0,0,1,.38-1.947,4.293,4.293,0,0,1,3.008-1.587c1.1-.234,2.2-.419,3.31-.584a7.6,7.6,0,0,1,2.735-.049,18.5,18.5,0,0,1,3.417,1.616,23.683,23.683,0,0,0,4.341,1.11,6.571,6.571,0,0,1,3.894,2.093,7.294,7.294,0,0,1,1.158,3.241c1.733,9.345-.136,18.923-.487,28.424-.137,3.689,0,7.641,2.141,10.708l-6.152-.156c-1.568-.049-3.261-.127-4.507-1.1a7.369,7.369,0,0,1-2.064-3.533,10.94,10.94,0,0,1-.789-3.164c-.1-2.239,1.168-4.429.76-6.619a7.379,7.379,0,0,0-2.823-4.117,25.817,25.817,0,0,1-3.729-3.319c-1.84-2.336-2.19-5.519-1.947-8.488a32.046,32.046,0,0,0,.3-5.276,6.66,6.66,0,0,0-1.392-3.709A5.141,5.141,0,0,1,622.449,281.884Z" transform="translate(-92.473 -134.586)" fill="#434175"/>
    <path id="Path_398" data-name="Path 398" d="M622.829,279.957a4.214,4.214,0,0,1,2.92-1.577,2.862,2.862,0,0,0-1.46,1.149,3.281,3.281,0,0,0-.379,1.947,5.1,5.1,0,0,0,1.577,3.543,6.66,6.66,0,0,1,1.392,3.7,32.14,32.14,0,0,1-.3,5.286c-.224,2.92.127,6.142,1.947,8.479a25.789,25.789,0,0,0,3.728,3.319,7.407,7.407,0,0,1,2.784,4.04c.409,2.2-.857,4.39-.759,6.619a10.847,10.847,0,0,0,.788,3.164,5.589,5.589,0,0,0,6.57,4.634l4.361.117c.1.156.195.312.3.467l-6.152-.156c-1.567-.049-3.261-.127-4.507-1.1a7.37,7.37,0,0,1-2.064-3.533,10.935,10.935,0,0,1-.788-3.164c-.1-2.239,1.168-4.429.759-6.619a7.378,7.378,0,0,0-2.774-4.03,25.8,25.8,0,0,1-3.728-3.319c-1.84-2.336-2.19-5.519-1.947-8.488a32.048,32.048,0,0,0,.3-5.276,6.657,6.657,0,0,0-1.392-3.709,5.143,5.143,0,0,1-1.577-3.543,3.282,3.282,0,0,1,.4-1.947Z" transform="translate(-92.473 -134.606)" opacity="0.1"/>
    <path id="Path_399" data-name="Path 399" d="M575.37,378.5,586.691,406a5.608,5.608,0,0,0,1.577-1.733,36.725,36.725,0,0,0-3.689-9.948c-.594-.973-1.285-1.947-1.947-2.92-1.8-2.823-2.171-6.385-4.215-9.033a1.549,1.549,0,0,1,0-1.84c.234-.3.613-.594.536-.973s-.341-.535-.224-.789.175-.195.282-.282c.34-.321.3-.876.331-1.343a6.65,6.65,0,0,1,1.489-3.232,2.084,2.084,0,0,1,.545-.584c.185-.117.409-.165.594-.282.652-.409.6-1.363.915-2.073.419-.974,1.451-1.4,2.122-2.161.866-.973,1.08-2.307,1.947-3.144l.078-.195-.857-5.315Z" transform="translate(-91.222 -136.78)" opacity="0.1"/>
  </g>
</svg>
