<svg xmlns="http://www.w3.org/2000/svg" width="479.043" height="412.048" viewBox="0 0 479.043 412.048">
  <g id="undraw_file_analysis_8k9b" transform="translate(0.001 -0.001)">
    <circle id="Ellipse_75" data-name="Ellipse 75" cx="4.432" cy="4.432" r="4.432" transform="translate(-0.001 0.001)" fill="#e6e6e6"/>
    <circle id="Ellipse_76" data-name="Ellipse 76" cx="4.432" cy="4.432" r="4.432" transform="translate(22.435 0.001)" fill="#e6e6e6"/>
    <circle id="Ellipse_77" data-name="Ellipse 77" cx="4.432" cy="4.432" r="4.432" transform="translate(44.871 0.001)" fill="#e6e6e6"/>
    <circle id="Ellipse_78" data-name="Ellipse 78" cx="4.432" cy="4.432" r="4.432" transform="translate(67.307 0.001)" fill="#e6e6e6"/>
    <circle id="Ellipse_79" data-name="Ellipse 79" cx="4.432" cy="4.432" r="4.432" transform="translate(89.743 0.001)" fill="#e6e6e6"/>
    <circle id="Ellipse_80" data-name="Ellipse 80" cx="4.432" cy="4.432" r="4.432" transform="translate(112.179 0.001)" fill="#e6e6e6"/>
    <circle id="Ellipse_81" data-name="Ellipse 81" cx="4.432" cy="4.432" r="4.432" transform="translate(134.615 0.001)" fill="#e6e6e6"/>
    <circle id="Ellipse_82" data-name="Ellipse 82" cx="4.432" cy="4.432" r="4.432" transform="translate(157.051 0.001)" fill="#e6e6e6"/>
    <circle id="Ellipse_83" data-name="Ellipse 83" cx="4.432" cy="4.432" r="4.432" transform="translate(179.487 0.001)" fill="#e6e6e6"/>
    <circle id="Ellipse_84" data-name="Ellipse 84" cx="4.432" cy="4.432" r="4.432" transform="translate(201.922 0.001)" fill="#e6e6e6"/>
    <circle id="Ellipse_85" data-name="Ellipse 85" cx="4.432" cy="4.432" r="4.432" transform="translate(-0.001 22.718)" fill="#e6e6e6"/>
    <circle id="Ellipse_86" data-name="Ellipse 86" cx="4.432" cy="4.432" r="4.432" transform="translate(22.435 22.718)" fill="#e6e6e6"/>
    <circle id="Ellipse_87" data-name="Ellipse 87" cx="4.432" cy="4.432" r="4.432" transform="translate(44.871 22.718)" fill="#e6e6e6"/>
    <circle id="Ellipse_88" data-name="Ellipse 88" cx="4.432" cy="4.432" r="4.432" transform="translate(67.307 22.718)" fill="#ff007c"/>
    <circle id="Ellipse_89" data-name="Ellipse 89" cx="4.432" cy="4.432" r="4.432" transform="translate(89.743 22.718)" fill="#e6e6e6"/>
    <circle id="Ellipse_90" data-name="Ellipse 90" cx="4.432" cy="4.432" r="4.432" transform="translate(112.179 22.718)" fill="#e6e6e6"/>
    <circle id="Ellipse_91" data-name="Ellipse 91" cx="4.432" cy="4.432" r="4.432" transform="translate(134.615 22.718)" fill="#e6e6e6"/>
    <circle id="Ellipse_92" data-name="Ellipse 92" cx="4.432" cy="4.432" r="4.432" transform="translate(157.051 22.718)" fill="#e6e6e6"/>
    <circle id="Ellipse_93" data-name="Ellipse 93" cx="4.432" cy="4.432" r="4.432" transform="translate(179.487 22.718)" fill="#e6e6e6"/>
    <circle id="Ellipse_94" data-name="Ellipse 94" cx="4.432" cy="4.432" r="4.432" transform="translate(201.922 22.718)" fill="#e6e6e6"/>
    <circle id="Ellipse_95" data-name="Ellipse 95" cx="4.432" cy="4.432" r="4.432" transform="translate(-0.001 45.436)" fill="#e6e6e6"/>
    <circle id="Ellipse_96" data-name="Ellipse 96" cx="4.432" cy="4.432" r="4.432" transform="translate(22.435 45.436)" fill="#e6e6e6"/>
    <circle id="Ellipse_97" data-name="Ellipse 97" cx="4.432" cy="4.432" r="4.432" transform="translate(44.871 45.436)" fill="#e6e6e6"/>
    <circle id="Ellipse_98" data-name="Ellipse 98" cx="4.432" cy="4.432" r="4.432" transform="translate(67.307 45.436)" fill="#e6e6e6"/>
    <circle id="Ellipse_99" data-name="Ellipse 99" cx="4.432" cy="4.432" r="4.432" transform="translate(89.743 45.436)" fill="#e6e6e6"/>
    <circle id="Ellipse_100" data-name="Ellipse 100" cx="4.432" cy="4.432" r="4.432" transform="translate(112.179 45.436)" fill="#e6e6e6"/>
    <circle id="Ellipse_101" data-name="Ellipse 101" cx="4.432" cy="4.432" r="4.432" transform="translate(134.615 45.436)" fill="#e6e6e6"/>
    <circle id="Ellipse_102" data-name="Ellipse 102" cx="4.432" cy="4.432" r="4.432" transform="translate(157.051 45.436)" fill="#e6e6e6"/>
    <circle id="Ellipse_103" data-name="Ellipse 103" cx="4.432" cy="4.432" r="4.432" transform="translate(179.487 45.436)" fill="#e6e6e6"/>
    <circle id="Ellipse_104" data-name="Ellipse 104" cx="4.432" cy="4.432" r="4.432" transform="translate(201.922 45.436)" fill="#e6e6e6"/>
    <circle id="Ellipse_105" data-name="Ellipse 105" cx="4.432" cy="4.432" r="4.432" transform="translate(-0.001 68.153)" fill="#e6e6e6"/>
    <circle id="Ellipse_106" data-name="Ellipse 106" cx="4.432" cy="4.432" r="4.432" transform="translate(22.435 68.153)" fill="#e6e6e6"/>
    <circle id="Ellipse_107" data-name="Ellipse 107" cx="4.432" cy="4.432" r="4.432" transform="translate(44.871 68.153)" fill="#e6e6e6"/>
    <circle id="Ellipse_108" data-name="Ellipse 108" cx="4.432" cy="4.432" r="4.432" transform="translate(67.307 68.153)" fill="#e6e6e6"/>
    <circle id="Ellipse_109" data-name="Ellipse 109" cx="4.432" cy="4.432" r="4.432" transform="translate(89.743 68.153)" fill="#e6e6e6"/>
    <circle id="Ellipse_110" data-name="Ellipse 110" cx="4.432" cy="4.432" r="4.432" transform="translate(112.179 68.153)" fill="#e6e6e6"/>
    <circle id="Ellipse_111" data-name="Ellipse 111" cx="4.432" cy="4.432" r="4.432" transform="translate(134.615 68.153)" fill="#e6e6e6"/>
    <circle id="Ellipse_112" data-name="Ellipse 112" cx="4.432" cy="4.432" r="4.432" transform="translate(157.051 68.153)" fill="#e6e6e6"/>
    <circle id="Ellipse_113" data-name="Ellipse 113" cx="4.432" cy="4.432" r="4.432" transform="translate(179.487 68.153)" fill="#e6e6e6"/>
    <circle id="Ellipse_114" data-name="Ellipse 114" cx="4.432" cy="4.432" r="4.432" transform="translate(201.922 68.153)" fill="#e6e6e6"/>
    <circle id="Ellipse_115" data-name="Ellipse 115" cx="4.432" cy="4.432" r="4.432" transform="translate(-0.001 90.871)" fill="#e6e6e6"/>
    <circle id="Ellipse_116" data-name="Ellipse 116" cx="4.432" cy="4.432" r="4.432" transform="translate(22.435 90.871)" fill="#ff007c"/>
    <circle id="Ellipse_117" data-name="Ellipse 117" cx="4.432" cy="4.432" r="4.432" transform="translate(44.871 90.871)" fill="#e6e6e6"/>
    <circle id="Ellipse_118" data-name="Ellipse 118" cx="4.432" cy="4.432" r="4.432" transform="translate(67.307 90.871)" fill="#e6e6e6"/>
    <circle id="Ellipse_119" data-name="Ellipse 119" cx="4.432" cy="4.432" r="4.432" transform="translate(89.743 90.871)" fill="#e6e6e6"/>
    <circle id="Ellipse_120" data-name="Ellipse 120" cx="4.432" cy="4.432" r="4.432" transform="translate(112.179 90.871)" fill="#e6e6e6"/>
    <circle id="Ellipse_121" data-name="Ellipse 121" cx="4.432" cy="4.432" r="4.432" transform="translate(134.615 90.871)" fill="#e6e6e6"/>
    <circle id="Ellipse_122" data-name="Ellipse 122" cx="4.432" cy="4.432" r="4.432" transform="translate(157.051 90.871)" fill="#e6e6e6"/>
    <circle id="Ellipse_123" data-name="Ellipse 123" cx="4.432" cy="4.432" r="4.432" transform="translate(179.487 90.871)" fill="#e6e6e6"/>
    <circle id="Ellipse_124" data-name="Ellipse 124" cx="4.432" cy="4.432" r="4.432" transform="translate(201.922 90.871)" fill="#e6e6e6"/>
    <circle id="Ellipse_125" data-name="Ellipse 125" cx="4.432" cy="4.432" r="4.432" transform="translate(-0.001 113.588)" fill="#e6e6e6"/>
    <circle id="Ellipse_126" data-name="Ellipse 126" cx="4.432" cy="4.432" r="4.432" transform="translate(22.435 113.588)" fill="#e6e6e6"/>
    <circle id="Ellipse_127" data-name="Ellipse 127" cx="4.432" cy="4.432" r="4.432" transform="translate(44.871 113.588)" fill="#e6e6e6"/>
    <circle id="Ellipse_128" data-name="Ellipse 128" cx="4.432" cy="4.432" r="4.432" transform="translate(67.307 113.588)" fill="#e6e6e6"/>
    <circle id="Ellipse_129" data-name="Ellipse 129" cx="4.432" cy="4.432" r="4.432" transform="translate(89.743 113.588)" fill="#e6e6e6"/>
    <circle id="Ellipse_130" data-name="Ellipse 130" cx="4.432" cy="4.432" r="4.432" transform="translate(112.179 113.588)" fill="#e6e6e6"/>
    <circle id="Ellipse_131" data-name="Ellipse 131" cx="4.432" cy="4.432" r="4.432" transform="translate(134.615 113.588)" fill="#e6e6e6"/>
    <circle id="Ellipse_132" data-name="Ellipse 132" cx="4.432" cy="4.432" r="4.432" transform="translate(157.051 113.588)" fill="#e6e6e6"/>
    <circle id="Ellipse_133" data-name="Ellipse 133" cx="4.432" cy="4.432" r="4.432" transform="translate(179.487 113.588)" fill="#e6e6e6"/>
    <circle id="Ellipse_134" data-name="Ellipse 134" cx="4.432" cy="4.432" r="4.432" transform="translate(201.922 113.588)" fill="#e6e6e6"/>
    <circle id="Ellipse_135" data-name="Ellipse 135" cx="4.432" cy="4.432" r="4.432" transform="translate(-0.001 136.306)" fill="#e6e6e6"/>
    <circle id="Ellipse_136" data-name="Ellipse 136" cx="4.432" cy="4.432" r="4.432" transform="translate(22.435 136.306)" fill="#e6e6e6"/>
    <circle id="Ellipse_137" data-name="Ellipse 137" cx="4.432" cy="4.432" r="4.432" transform="translate(44.871 136.306)" fill="#ff007c"/>
    <circle id="Ellipse_138" data-name="Ellipse 138" cx="4.432" cy="4.432" r="4.432" transform="translate(67.307 136.306)" fill="#e6e6e6"/>
    <circle id="Ellipse_139" data-name="Ellipse 139" cx="4.432" cy="4.432" r="4.432" transform="translate(89.743 136.306)" fill="#e6e6e6"/>
    <circle id="Ellipse_140" data-name="Ellipse 140" cx="4.432" cy="4.432" r="4.432" transform="translate(112.179 136.306)" fill="#e6e6e6"/>
    <circle id="Ellipse_141" data-name="Ellipse 141" cx="4.432" cy="4.432" r="4.432" transform="translate(134.615 136.306)" fill="#e6e6e6"/>
    <circle id="Ellipse_142" data-name="Ellipse 142" cx="4.432" cy="4.432" r="4.432" transform="translate(157.051 136.306)" fill="#e6e6e6"/>
    <circle id="Ellipse_143" data-name="Ellipse 143" cx="4.432" cy="4.432" r="4.432" transform="translate(179.487 136.306)" fill="#e6e6e6"/>
    <circle id="Ellipse_144" data-name="Ellipse 144" cx="4.432" cy="4.432" r="4.432" transform="translate(201.922 136.306)" fill="#e6e6e6"/>
    <circle id="Ellipse_145" data-name="Ellipse 145" cx="4.432" cy="4.432" r="4.432" transform="translate(-0.001 159.024)" fill="#e6e6e6"/>
    <circle id="Ellipse_146" data-name="Ellipse 146" cx="4.432" cy="4.432" r="4.432" transform="translate(22.435 159.024)" fill="#e6e6e6"/>
    <circle id="Ellipse_147" data-name="Ellipse 147" cx="4.432" cy="4.432" r="4.432" transform="translate(44.871 159.024)" fill="#e6e6e6"/>
    <circle id="Ellipse_148" data-name="Ellipse 148" cx="4.432" cy="4.432" r="4.432" transform="translate(67.307 159.024)" fill="#e6e6e6"/>
    <circle id="Ellipse_149" data-name="Ellipse 149" cx="4.432" cy="4.432" r="4.432" transform="translate(89.743 159.024)" fill="#e6e6e6"/>
    <circle id="Ellipse_150" data-name="Ellipse 150" cx="4.432" cy="4.432" r="4.432" transform="translate(112.179 159.024)" fill="#e6e6e6"/>
    <circle id="Ellipse_151" data-name="Ellipse 151" cx="4.432" cy="4.432" r="4.432" transform="translate(134.615 159.024)" fill="#e6e6e6"/>
    <circle id="Ellipse_152" data-name="Ellipse 152" cx="4.432" cy="4.432" r="4.432" transform="translate(157.051 159.024)" fill="#e6e6e6"/>
    <circle id="Ellipse_153" data-name="Ellipse 153" cx="4.432" cy="4.432" r="4.432" transform="translate(179.487 159.024)" fill="#e6e6e6"/>
    <circle id="Ellipse_154" data-name="Ellipse 154" cx="4.432" cy="4.432" r="4.432" transform="translate(201.922 159.024)" fill="#e6e6e6"/>
    <circle id="Ellipse_155" data-name="Ellipse 155" cx="4.432" cy="4.432" r="4.432" transform="translate(-0.001 181.741)" fill="#e6e6e6"/>
    <circle id="Ellipse_156" data-name="Ellipse 156" cx="4.432" cy="4.432" r="4.432" transform="translate(22.435 181.741)" fill="#e6e6e6"/>
    <circle id="Ellipse_157" data-name="Ellipse 157" cx="4.432" cy="4.432" r="4.432" transform="translate(44.871 181.741)" fill="#e6e6e6"/>
    <circle id="Ellipse_158" data-name="Ellipse 158" cx="4.432" cy="4.432" r="4.432" transform="translate(67.307 181.741)" fill="#e6e6e6"/>
    <circle id="Ellipse_159" data-name="Ellipse 159" cx="4.432" cy="4.432" r="4.432" transform="translate(89.743 181.741)" fill="#e6e6e6"/>
    <circle id="Ellipse_160" data-name="Ellipse 160" cx="4.432" cy="4.432" r="4.432" transform="translate(112.179 181.741)" fill="#e6e6e6"/>
    <circle id="Ellipse_161" data-name="Ellipse 161" cx="4.432" cy="4.432" r="4.432" transform="translate(134.615 181.741)" fill="#e6e6e6"/>
    <circle id="Ellipse_162" data-name="Ellipse 162" cx="4.432" cy="4.432" r="4.432" transform="translate(157.051 181.741)" fill="#e6e6e6"/>
    <circle id="Ellipse_163" data-name="Ellipse 163" cx="4.432" cy="4.432" r="4.432" transform="translate(179.487 181.741)" fill="#e6e6e6"/>
    <circle id="Ellipse_164" data-name="Ellipse 164" cx="4.432" cy="4.432" r="4.432" transform="translate(201.922 181.741)" fill="#e6e6e6"/>
    <circle id="Ellipse_165" data-name="Ellipse 165" cx="4.432" cy="4.432" r="4.432" transform="translate(-0.001 204.459)" fill="#e6e6e6"/>
    <circle id="Ellipse_166" data-name="Ellipse 166" cx="4.432" cy="4.432" r="4.432" transform="translate(22.435 204.459)" fill="#e6e6e6"/>
    <circle id="Ellipse_167" data-name="Ellipse 167" cx="4.432" cy="4.432" r="4.432" transform="translate(44.871 204.459)" fill="#e6e6e6"/>
    <circle id="Ellipse_168" data-name="Ellipse 168" cx="4.432" cy="4.432" r="4.432" transform="translate(67.307 204.459)" fill="#e6e6e6"/>
    <circle id="Ellipse_169" data-name="Ellipse 169" cx="4.432" cy="4.432" r="4.432" transform="translate(89.743 204.459)" fill="#e6e6e6"/>
    <circle id="Ellipse_170" data-name="Ellipse 170" cx="4.432" cy="4.432" r="4.432" transform="translate(112.179 204.459)" fill="#e6e6e6"/>
    <circle id="Ellipse_171" data-name="Ellipse 171" cx="4.432" cy="4.432" r="4.432" transform="translate(134.615 204.459)" fill="#e6e6e6"/>
    <circle id="Ellipse_172" data-name="Ellipse 172" cx="4.432" cy="4.432" r="4.432" transform="translate(157.051 204.459)" fill="#e6e6e6"/>
    <circle id="Ellipse_173" data-name="Ellipse 173" cx="4.432" cy="4.432" r="4.432" transform="translate(179.487 204.459)" fill="#e6e6e6"/>
    <circle id="Ellipse_174" data-name="Ellipse 174" cx="4.432" cy="4.432" r="4.432" transform="translate(201.922 204.459)" fill="#e6e6e6"/>
    <path id="Path_179" data-name="Path 179" d="M519.8,193.831a5.6,5.6,0,0,1,5.6,5.6V423.578a5.6,5.6,0,0,1-5.6,5.6H358.978a5.6,5.6,0,0,1-5.6-5.6V199.434a5.6,5.6,0,0,1,5.6-5.6H519.8" transform="translate(-259.329 -154.219)" fill="#e6e6e6"/>
    <path id="Path_180" data-name="Path 180" d="M362.991,426.286H522.509V203.447H362.991Z" transform="translate(-262.69 -157.58)" fill="#fff"/>
    <path id="Path_181" data-name="Path 181" d="M505.483,257.643a1.121,1.121,0,0,1,1.121,1.121v2.242a1.121,1.121,0,0,1-1.121,1.121H416.946a1.121,1.121,0,0,1-1.121-1.121v-2.242a1.121,1.121,0,0,1,1.121-1.121h88.537" transform="translate(-281.154 -176.52)" fill="#e6e6e6"/>
    <path id="Path_182" data-name="Path 182" d="M505.483,274.009a1.121,1.121,0,0,1,1.121,1.121v2.241a1.121,1.121,0,0,1-1.121,1.121H416.946a1.121,1.121,0,0,1-1.121-1.121V275.13a1.121,1.121,0,0,1,1.121-1.121h88.537" transform="translate(-281.154 -182.239)" fill="#e6e6e6"/>
    <path id="Path_183" data-name="Path 183" d="M505.483,290.376A1.121,1.121,0,0,1,506.6,291.5v2.241a1.121,1.121,0,0,1-1.121,1.121H416.946a1.121,1.121,0,0,1-1.121-1.121V291.5a1.121,1.121,0,0,1,1.121-1.121h88.537" transform="translate(-281.154 -187.959)" fill="#ff007c"/>
    <path id="Path_184" data-name="Path 184" d="M505.483,307.1a1.121,1.121,0,0,1,1.121,1.121v2.241a1.121,1.121,0,0,1-1.121,1.121H416.946a1.121,1.121,0,0,1-1.121-1.121v-2.241a1.121,1.121,0,0,1,1.121-1.121h88.537" transform="translate(-281.154 -193.804)" fill="#e6e6e6"/>
    <path id="Path_185" data-name="Path 185" d="M505.483,323.467a1.121,1.121,0,0,1,1.121,1.121v2.241a1.121,1.121,0,0,1-1.121,1.121H416.946a1.121,1.121,0,0,1-1.121-1.121v-2.241a1.121,1.121,0,0,1,1.121-1.121h88.537" transform="translate(-281.154 -199.524)" fill="#e6e6e6"/>
    <path id="Path_186" data-name="Path 186" d="M505.483,339.834a1.121,1.121,0,0,1,1.121,1.121V343.2a1.121,1.121,0,0,1-1.121,1.121H416.946a1.121,1.121,0,0,1-1.121-1.121v-2.241a1.121,1.121,0,0,1,1.121-1.121h88.537" transform="translate(-281.154 -205.244)" fill="#e6e6e6"/>
    <path id="Path_187" data-name="Path 187" d="M417.718,394.89a1.3,1.3,0,0,0-1.3,1.3v60.444a1.3,1.3,0,0,0,1.3,1.3h87.255a1.3,1.3,0,0,0,1.3-1.3V396.191a1.3,1.3,0,0,0-1.3-1.3Z" transform="translate(-281.361 -224.485)" fill="#ff007c"/>
    <path id="Path_188" data-name="Path 188" d="M276.749,120.656l-.916-.243,19.989-75.192H411.761v.948H296.549Z" transform="translate(-96.398 -15.803)" fill="#3f3d56"/>
    <path id="Path_189" data-name="Path 189" d="M702.809,183.491a9.947,9.947,0,1,1,9.947-9.947A9.947,9.947,0,0,1,702.809,183.491Zm0-18.947a9,9,0,1,0,9,9,9,9,0,0,0-9-9Z" transform="translate(-377.972 -143.653)" fill="#3f3d56"/>
    <circle id="Ellipse_175" data-name="Ellipse 175" cx="3.789" cy="3.789" r="3.789" transform="translate(321.048 26.102)" fill="#ff007c"/>
    <path id="Path_190" data-name="Path 190" d="M199.868,356.941l.915.245-20.132,75.154-115.939-.222,0-.948,115.211.221Z" transform="translate(-22.616 -124.743)" fill="#3f3d56"/>
    <path id="Path_191" data-name="Path 191" d="M253.631,589.4a9.947,9.947,0,1,1-9.967,9.928A9.947,9.947,0,0,1,253.631,589.4Zm-.036,18.947a9,9,0,1,0-8.983-9.017,9,9,0,0,0,8.983,9.017Z" transform="translate(-220.988 -292.46)" fill="#3f3d56"/>
    <circle id="Ellipse_176" data-name="Ellipse 176" cx="3.789" cy="3.789" r="3.789" transform="translate(28.834 303.094)" fill="#ff007c"/>
    <path id="Path_192" data-name="Path 192" d="M613.236,580.712h-6.685l1.194-37.01,17.669.955Z" transform="translate(-211.976 -190.011)" fill="#ffb8b8"/>
    <path id="Path_193" data-name="Path 193" d="M814.326,754c-2.018.921-3.708-6.541-5.41-4.868-4.761,4.679-9.681,5.7-16.036,3.655l-.147-.025a2.977,2.977,0,0,1-1.876-3.879h0a2.976,2.976,0,0,1,2.065-1.842l5.064-1.266,7.951-13.982,8.116-.548h0a19.39,19.39,0,0,1,3.587,16.542C816.9,750.8,815.764,753.348,814.326,754Z" transform="translate(-412.153 -342.035)" fill="#2f2e41"/>
    <path id="Path_194" data-name="Path 194" d="M704.41,572.656l-6.217,2.459-12.5-34.854,16.782-5.611Z" transform="translate(-239.634 -186.848)" fill="#ffb8b8"/>
    <path id="Path_195" data-name="Path 195" d="M923.865,744.587c-1.538,1.6-5.854-4.718-6.822-2.537-2.707,6.1-6.906,8.859-13.568,9.3l-.146.031a2.976,2.976,0,0,1-3.171-2.917h0a2.977,2.977,0,0,1,1.243-2.473l4.243-3.039,2.251-15.926,7.346-3.5h0a19.391,19.391,0,0,1,9.419,14.063C925.081,740.658,924.962,743.448,923.865,744.587Z" transform="translate(-450.418 -339.336)" fill="#2f2e41"/>
    <path id="Path_196" data-name="Path 196" d="M882.952,427.954l-10.264,2.639a5.372,5.372,0,0,1-6.706-5h0a5.371,5.371,0,0,1,5.541-5.576l9.041.292,17.422-6.344-16.467-12.28,1.91-17.192,32.091,25.763a5.332,5.332,0,0,1,1.98,3.777h0a5.331,5.331,0,0,1-3.909,5.521C906.073,425.7,895.118,427.576,882.952,427.954Z" transform="translate(-438.473 -220.853)" fill="#ffb8b8"/>
    <circle id="Ellipse_177" data-name="Ellipse 177" cx="16.714" cy="16.714" r="16.714" transform="translate(404.367 109.205)" fill="#ffb8b8"/>
    <path id="Path_197" data-name="Path 197" d="M872.787,353.532,850.343,362.6a30.335,30.335,0,0,0-5.253-20.057l18.624-4.3C863.472,343.938,866.548,349.023,872.787,353.532Z" transform="translate(-431.172 -204.69)" fill="#ffb8b8"/>
    <path id="Path_198" data-name="Path 198" d="M870.689,398.351c-18.093,1.448-27.989-.954-43.217-9.79l5.73-13.371h0a11.06,11.06,0,0,1,4.556-10.589l5.95-4.215,18.147-5.253.814.041a9.933,9.933,0,0,1,9.408,9.159C876.018,376.115,876.044,387.5,870.689,398.351Z" transform="translate(-425.015 -210.591)" fill="#ff007c"/>
    <path id="Path_199" data-name="Path 199" d="M864.182,441.167l-38.681-4.3-2.865-12.416c-6.351-9.587-3.579-18.369,3.82-26.742,13.487,8.656,26.007,12.4,43.934,9.551C865.622,418.856,861.22,430.251,864.182,441.167Z" transform="translate(-422.09 -225.47)" fill="#2f2e41"/>
    <path id="Path_200" data-name="Path 200" d="M888.727,605.873l-30.8-1.671L847.9,524.452l-8.119,79.271-36.531-1.671c11.144-52.114,18.886-101.588,16.714-147.083l38.2,3.343c12.947,13.652,19.376,35.444,23.161,61.364A698.043,698.043,0,0,1,888.727,605.873Z" transform="translate(-416.549 -245.481)" fill="#2f2e41"/>
    <circle id="Ellipse_178" data-name="Ellipse 178" cx="5.745" cy="5.745" r="5.745" transform="translate(433.735 99.214)" fill="#2f2e41"/>
    <path id="Path_201" data-name="Path 201" d="M874.893,289.209a5.741,5.741,0,0,1,5.742-5.37c-.119-.015-.236-.033-.357-.041a5.745,5.745,0,0,0-.737,11.466c.121.008.24,0,.359,0A5.74,5.74,0,0,1,874.893,289.209Z" transform="translate(-441.334 -185.656)" fill="#2f2e41"/>
    <path id="Path_202" data-name="Path 202" d="M857.538,295.048c-5.124-4.25-19.819,1.152-20.768,4.009-6.929.944-12.174,4.987-12.174,12.174h0c4.119,1.688,8.8,1.48,13.868,0,8.073,6.579,8.626,14.849,3.717,24.349l6.04.121,7.487-10.942.358,11.1,13.845-.278V319.674a33.254,33.254,0,0,0-3.551-15.236C864.2,300.247,860.855,297.8,857.538,295.048Z" transform="translate(-424.01 -189.043)" fill="#2f2e41"/>
    <ellipse id="Ellipse_179" data-name="Ellipse 179" cx="2.747" cy="3.846" rx="2.747" ry="3.846" transform="translate(417.888 126.415)" fill="#ffb8b8"/>
    <path id="Path_203" data-name="Path 203" d="M807.72,559.928a.965.965,0,0,1,.965.965v38.589a.965.965,0,0,1-.965.965H780.033a.965.965,0,0,1-.964-.965V560.893a.964.964,0,0,1,.964-.965H807.72" transform="translate(-408.1 -282.162)" fill="#ff007c"/>
    <path id="Path_204" data-name="Path 204" d="M823.11,479.816l.935,16.207a7.038,7.038,0,0,1-8.05,7.368h0c-4.118-.605-4.211-4.632-3.2-8.67l3.846-15.383c9.434-33.826,11.981-67.027,11.5-99.408a8.13,8.13,0,0,1,8.349-8.271h0a8.126,8.126,0,0,1,7.885,8.409C843.041,418.093,837.5,452.623,823.11,479.816Z" transform="translate(-419.699 -216.365)" fill="#ffb8b8"/>
  </g>
</svg>
